<?xml version="1.0" encoding="UTF-8"?>
<svg width="20px" height="24px" viewBox="0 0 20 24" version="1.1" xmlns="http://www.w3.org/2000/svg" xmlns:xlink="http://www.w3.org/1999/xlink">
    <!-- Generator: Sketch 52.5 (67469) - http://www.bohemiancoding.com/sketch -->
    <title>Shape</title>
    <desc>Created with Sketch.</desc>
    <g id="官网" stroke="none" stroke-width="1" fill="none" fill-rule="evenodd">
        <g id="3-copy-24" transform="translate(-154.000000, -649.000000)" fill="#FFFFFF" fill-rule="nonzero">
            <g id="Group-59" transform="translate(124.000000, 527.000000)">
                <g id="Group-19" transform="translate(30.000000, 121.000000)">
                    <path d="M18.5777095,8.52070044 C17.7923115,8.52070044 17.1554191,9.18468012 17.1554191,10.0036983 L17.1554191,15.7991196 C17.1554191,16.6182182 17.7922854,17.2821711 18.5777095,17.2821711 C19.3632381,17.2821711 20,16.6181914 20,15.7991196 L20,10.0036983 C20.0000261,9.18468012 19.3632903,8.52070044 18.5777095,8.52070044 Z M1.42229045,8.52070044 C0.636814128,8.52070044 0,9.18468012 0,10.0036983 L0,15.7991196 C0,16.6182182 0.636814128,17.2821711 1.42229045,17.2821711 C2.20776678,17.2821711 2.84458091,16.6181914 2.84458091,15.7991196 L2.84458091,10.0036983 C2.84458091,9.18468012 2.20776678,8.52070044 1.42229045,8.52070044 Z M3.70047204,8.56559834 L3.70047204,19.1538373 C3.70047204,19.7827296 4.19705704,20.2925286 4.80964242,20.2925286 L6.07676964,20.2925286 L6.07676964,23.5169485 C6.07676964,24.3360471 6.71358377,25 7.49906009,25 C8.28458863,25 8.92140276,24.3360203 8.92140276,23.5169485 L8.92140276,20.2925018 L11.135044,20.2925018 L11.135044,23.5169217 C11.135044,24.3360203 11.7719103,24.9999732 12.5573344,24.9999732 C13.342863,24.9999732 13.9797554,24.3359935 13.9797554,23.5169217 L13.9797554,20.2925018 L15.2467521,20.2925018 C15.8594419,20.2925018 16.3559747,19.7827296 16.3559747,19.1538105 L16.3559747,8.56559834 L3.70047204,8.56559834 Z M12.9998225,3.07896736 L14.1688859,1.33668748 C14.2382564,1.23319446 14.2210247,1.09726773 14.1302974,1.03309724 C14.0395701,0.968980351 13.9097583,1.00082436 13.8403879,1.10437098 L12.6260261,2.91417195 C11.8257984,2.59050498 10.9366188,2.41010922 10,2.41010922 C9.06338116,2.41010922 8.17425382,2.59047817 7.37402615,2.91417195 L6.15966435,1.10437098 C6.09024166,1.00082436 5.96042985,0.969007155 5.86970257,1.03309724 C5.77897529,1.09729454 5.76176974,1.23322126 5.83116632,1.33668748 L7.00022976,3.07896736 C5.14161288,3.96665922 3.83814253,5.65334611 3.67224868,7.62201865 L16.3277774,7.62201865 C16.1618575,5.65334611 14.8583871,3.96665922 12.9998225,3.07896736 Z M7.33039873,5.82478909 C6.9437047,5.82478909 6.63019299,5.50299845 6.63019299,5.10591335 C6.63019299,4.70890867 6.94367859,4.38703761 7.33039873,4.38703761 C7.71714498,4.38703761 8.03060447,4.70888187 8.03060447,5.10591335 C8.03060447,5.50297164 7.71717108,5.82478909 7.33039873,5.82478909 Z M12.7571433,5.82478909 C12.3704493,5.82478909 12.0570159,5.50299845 12.0570159,5.10591335 C12.0570159,4.70890867 12.3704232,4.38703761 12.7571433,4.38703761 C13.1439679,4.38703761 13.4574013,4.70888187 13.4574013,5.10591335 C13.4574013,5.50297164 13.143994,5.82478909 12.7571433,5.82478909 Z" id="Shape"></path>
                </g>
            </g>
        </g>
    </g>
</svg>