<svg width="97" height="97" viewBox="0 0 97 97" fill="none" xmlns="http://www.w3.org/2000/svg">
<path d="M48.4951 96.9853C75.0255 96.9853 96.5327 75.4782 96.5327 48.9478C96.5327 22.4173 75.0255 0.910156 48.4951 0.910156C21.9647 0.910156 0.45752 22.4173 0.45752 48.9478C0.45752 75.4782 21.9647 96.9853 48.4951 96.9853Z" fill="#B31515"/>
<path d="M48.1193 49.2482C33.6103 49.2482 21.8076 37.4455 21.8076 22.9365H29.8515C29.8515 33.0101 38.0457 41.2043 48.1193 41.2043C58.1929 41.2043 66.3871 33.0101 66.3871 22.9365H74.431C74.431 37.3704 62.6283 49.2482 48.1193 49.2482Z" fill="white"/>
<path d="M48.1193 35.4158C51.5653 35.4158 54.3589 32.6222 54.3589 29.1761C54.3589 25.7301 51.5653 22.9365 48.1193 22.9365C44.6732 22.9365 41.8796 25.7301 41.8796 29.1761C41.8796 32.6222 44.6732 35.4158 48.1193 35.4158Z" fill="white"/>
<path d="M48.1193 79.6199C51.5653 79.6199 54.3589 76.8263 54.3589 73.3803C54.3589 69.9342 51.5653 67.1406 48.1193 67.1406C44.6732 67.1406 41.8796 69.9342 41.8796 73.3803C41.8796 76.8263 44.6732 79.6199 48.1193 79.6199Z" fill="white"/>
<path d="M73.9799 53.9844H21.8076V62.6296H73.9799V53.9844Z" fill="white"/>
</svg>
