<svg width="125" height="34" fill="none" xmlns="http://www.w3.org/2000/svg"><path d="M42.993 25.004V8.727h4.912l2.953 11.105 2.928-11.105h4.93v16.277H55.66V12.191l-3.23 12.813h-3.165l-3.222-12.813v12.813h-3.051zM64.29 16.81l-2.83-.51a4.413 4.413 0 011.642-2.533c.77-.547 1.926-.821 3.468-.821 1.392 0 2.429.165 3.109.494a3.105 3.105 0 011.445 1.254c.277.509.416 1.44.416 2.794l-.032 3.642c-.02.767.03 1.535.15 2.294.119.549.307 1.08.56 1.58h-3.097a8.417 8.417 0 01-.289-.918c-.052-.185-.087-.31-.11-.367a5.624 5.624 0 01-1.71 1.155 4.876 4.876 0 01-1.942.39c-1.216 0-2.173-.329-2.873-.988a3.29 3.29 0 01-1.049-2.5 3.36 3.36 0 01.477-1.782c.32-.522.785-.939 1.338-1.2a10.53 10.53 0 012.482-.728 16.725 16.725 0 003.032-.765V17c0-.602-.148-1.03-.442-1.284-.29-.257-.867-.384-1.68-.384a2.214 2.214 0 00-1.297.33 2.272 2.272 0 00-.769 1.146zm4.175 2.534c-.624.19-1.258.35-1.898.476a5.814 5.814 0 00-1.7.544 1.3 1.3 0 00-.61 1.1 1.532 1.532 0 00.49 1.134 1.708 1.708 0 001.242.476 2.71 2.71 0 001.612-.555c.355-.253.616-.617.743-1.034.103-.5.144-1.01.121-1.52v-.621zm9.129 5.66h-3.121V13.212h2.89v1.676c.497-.792.942-1.312 1.34-1.564.403-.254.87-.385 1.347-.378.725 0 1.436.2 2.055.578l-.966 2.719a2.736 2.736 0 00-1.465-.512 1.74 1.74 0 00-1.11.362c-.368.35-.618.807-.716 1.306-.177.63-.265 1.947-.263 3.953l.009 3.652zm4.762-3.364l3.132-.476c.095.543.382 1.033.81 1.381.501.344 1.103.51 1.71.474.806 0 1.413-.15 1.82-.445a.993.993 0 00.414-.832.827.827 0 00-.223-.578 2.495 2.495 0 00-1.046-.41c-2.518-.555-4.113-1.063-4.785-1.523a3.033 3.033 0 01-1.399-2.653A3.265 3.265 0 0184 14.001c.807-.694 2.06-1.042 3.757-1.044 1.612 0 2.811.263 3.597.79a4.045 4.045 0 011.621 2.331l-2.944.543a1.82 1.82 0 00-.714-1.054 2.638 2.638 0 00-1.505-.367c-.824 0-1.41.115-1.766.344a.742.742 0 00-.356.632.691.691 0 00.31.578c.283.208 1.255.497 2.915.867 1.661.37 2.822.832 3.482 1.387a2.89 2.89 0 01.977 2.312 3.557 3.557 0 01-1.355 2.786c-.902.77-2.238 1.155-4.008 1.155-1.607 0-2.878-.325-3.814-.976a4.51 4.51 0 01-1.841-2.644zM96.14 8.727h6.507c.966-.021 1.932.032 2.89.159a4.274 4.274 0 011.699.673c.513.356.94.82 1.251 1.361a3.69 3.69 0 01.5 1.905 3.752 3.752 0 01-.624 2.097 3.83 3.83 0 01-1.67 1.445c.903.231 1.706.75 2.288 1.477.535.704.816 1.569.798 2.453a4.857 4.857 0 01-.514 2.162 4.374 4.374 0 01-1.413 1.676 4.628 4.628 0 01-2.202.771c-.549.06-1.871.097-3.965.11H96.14V8.726zm3.288 2.708v3.756h2.153c1.28 0 2.078-.017 2.387-.055a2.173 2.173 0 001.329-.578 1.734 1.734 0 00.483-1.271 1.795 1.795 0 00-.416-1.228 1.896 1.896 0 00-1.24-.578c-.326-.039-1.262-.058-2.809-.058l-1.887.012zm0 6.475v4.34h3.043c.753.025 1.506-.008 2.254-.098.46-.074.882-.303 1.193-.65.322-.387.486-.881.46-1.384a2.125 2.125 0 00-.356-1.242 1.985 1.985 0 00-1.025-.743c-.453-.145-1.425-.217-2.916-.217l-2.653-.006zm13.102-6.296v-2.89h3.121v2.89h-3.121zm0 13.39V13.212h3.121v11.792h-3.121zm11.726-11.793V15.7h-2.132v4.754c-.02.561 0 1.123.06 1.682a.693.693 0 00.289.396.896.896 0 00.526.153 4.046 4.046 0 001.257-.29l.266 2.42a6.189 6.189 0 01-2.465.468 3.94 3.94 0 01-1.523-.29 2.24 2.24 0 01-.994-.733 2.933 2.933 0 01-.439-1.217 15.1 15.1 0 01-.098-2.199V15.7h-1.445v-2.488h1.445v-2.343l3.132-1.82v4.163h2.121zM17 34c9.389 0 17-7.611 17-17S26.389 0 17 0 0 7.611 0 17s7.611 17 17 17z" fill="#0056FF"/><path d="M37.02 6.25h-6.83L17.324 17.81a.431.431 0 01-.506.052l-6.201-3.572a.431.431 0 00-.506.052L.939 22.574a16.968 16.968 0 002.442 4.589l7.409-6.646a.43.43 0 01.509-.052l6.184 3.586a.437.437 0 00.508-.067l14.801-13.292 4.416-3.968a.29.29 0 00-.188-.474z" fill="#2DD2FF"/></svg>