<?xml version="1.0" standalone="no"?><!DOCTYPE svg PUBLIC "-//W3C//DTD SVG 1.1//EN" "http://www.w3.org/Graphics/SVG/1.1/DTD/svg11.dtd"><svg t="1562899545230" class="icon" viewBox="0 0 1024 1024" version="1.1" xmlns="http://www.w3.org/2000/svg" p-id="2990" xmlns:xlink="http://www.w3.org/1999/xlink" width="32" height="32"><defs><style type="text/css"></style></defs><path d="M866.742857 762.148571l-20.48-170.788571a6.948571 6.948571 0 0 0-11.702857-4.022857l-50.834286 51.2-232.594285-232.594286a14.262857 14.262857 0 0 0-19.382858 0l-87.04 87.04L207.36 256a6.948571 6.948571 0 0 0-9.508571 0L159.085714 294.765714a6.948571 6.948571 0 0 0 0 9.508572l275.748572 276.114285a13.531429 13.531429 0 0 0 19.382857 0l87.405714-87.405714 193.828572 193.828572-50.834286 50.834285a6.948571 6.948571 0 0 0 4.022857 11.702857l170.422857 20.48a6.582857 6.582857 0 0 0 7.68-7.68z" p-id="2991" fill="#ed061b"></path></svg>