<?xml version="1.0" standalone="no"?><!DOCTYPE svg PUBLIC "-//W3C//DTD SVG 1.1//EN" "http://www.w3.org/Graphics/SVG/1.1/DTD/svg11.dtd"><svg t="1541495993544" class="icon" style="" viewBox="0 0 1024 1024" version="1.1" xmlns="http://www.w3.org/2000/svg" p-id="6139" xmlns:xlink="http://www.w3.org/1999/xlink" width="200" height="200"><defs><style type="text/css"></style></defs><path d="M960 467.2v-6.4L556.8 57.6h-6.4L172.8 428.8C64 537.6 51.2 710.4 140.8 825.6c51.2 64 128 108.8 211.2 108.8h563.2v-64H550.4c6.4-6.4 19.2-12.8 25.6-19.2l384-384zM556.8 204.8l256 256v6.4l-217.6 217.6-262.4-262.4 217.6-217.6h6.4z m-332.8 550.4c-57.6-70.4-51.2-172.8 12.8-243.2l262.4 262.4c-38.4 32-83.2 57.6-128 57.6-57.6 0-108.8-25.6-147.2-76.8z" p-id="6140"></path></svg>
