<svg width="125" height="34" viewBox="0 0 125 34" fill="none" xmlns="http://www.w3.org/2000/svg">
<g id="&#229;&#155;&#190;&#229;&#177;&#130; 3">
<g id="&#229;&#155;&#190;&#229;&#177;&#130; 1">
<path id="Vector" d="M42.9927 25.0043V8.72675H47.9051L50.8584 19.8318L53.7856 8.72675H58.7154V25.0043H55.661V12.1915L52.4304 25.0043H49.2662L46.0442 12.1915V25.0043H42.9927Z" fill="#0056FF"/>
<path id="Vector_2" d="M64.2895 16.8094L61.4605 16.3008C61.6926 15.2894 62.2738 14.3921 63.1019 13.7666C63.8725 13.2195 65.0283 12.9459 66.5695 12.9459C67.9623 12.9459 68.9988 13.1106 69.6788 13.4401C70.2804 13.6957 70.786 14.1345 71.1236 14.6942C71.4011 15.2028 71.5398 16.1342 71.5398 17.4885L71.508 21.1295C71.4877 21.8973 71.538 22.6653 71.6582 23.4239C71.7768 23.9726 71.9652 24.5038 72.2188 25.0046H69.1211C69.0402 24.7994 68.939 24.4931 68.8321 24.0856C68.7801 23.9007 68.7454 23.7765 68.7223 23.7187C68.2283 24.2062 67.6483 24.5981 67.0116 24.8745C66.3978 25.136 65.7369 25.2688 65.0698 25.2646C63.8542 25.2646 62.8967 24.9352 62.1974 24.2764C61.855 23.9582 61.5843 23.5707 61.4034 23.1397C61.2225 22.7087 61.1356 22.244 61.1485 21.7768C61.1379 21.1496 61.3031 20.532 61.6253 19.9939C61.9447 19.4722 62.4098 19.0553 62.9632 18.7946C63.7575 18.4508 64.5912 18.2062 65.4454 18.0664C66.4775 17.9064 67.4924 17.65 68.4767 17.3007V17.0001C68.4767 16.3991 68.3293 15.9714 68.0346 15.7171C67.7456 15.4599 67.1677 15.3328 66.3557 15.3328C65.8995 15.3061 65.4463 15.4211 65.0582 15.6622C64.6891 15.9556 64.4205 16.3565 64.2895 16.8094V16.8094ZM68.4651 19.3437C67.8407 19.5344 67.2071 19.6935 66.5666 19.8205C65.9757 19.9131 65.4025 20.0963 64.8675 20.3637C64.681 20.4806 64.5272 20.643 64.4206 20.8355C64.3139 21.0281 64.2579 21.2446 64.2578 21.4647C64.2562 21.6771 64.2988 21.8874 64.3828 22.0824C64.4669 22.2774 64.5906 22.4528 64.7461 22.5975C64.9108 22.7561 65.1056 22.88 65.319 22.9619C65.5325 23.0438 65.7602 23.082 65.9887 23.0743C66.5719 23.0676 67.1373 22.873 67.6011 22.5194C67.9562 22.2661 68.2173 21.9024 68.3438 21.4849C68.4468 20.9852 68.4876 20.4747 68.4651 19.965V19.3437Z" fill="#0056FF"/>
<path id="Vector_3" d="M77.5938 25.0043H74.4729V13.2116H77.3626V14.8876C77.8596 14.0958 78.3046 13.5757 78.7034 13.3242C79.1061 13.0702 79.5739 12.9387 80.05 12.9457C80.7749 12.9465 81.4856 13.1464 82.1046 13.5236L81.1394 16.2428C80.7106 15.9345 80.2018 15.7569 79.6743 15.7314C79.2738 15.7199 78.8817 15.8476 78.5647 16.0926C78.1963 16.4432 77.9459 16.8996 77.848 17.3987C77.6708 18.0287 77.5832 19.3463 77.5851 21.3518L77.5938 25.0043Z" fill="#0056FF"/>
<path id="Vector_4" d="M82.356 21.6408L85.4884 21.164C85.583 21.7068 85.8703 22.1972 86.2975 22.5452C86.7992 22.8889 87.4011 23.0557 88.0082 23.0191C88.8144 23.0191 89.4212 22.8689 89.8287 22.5741C89.9601 22.4796 90.0665 22.3543 90.1385 22.2093C90.2105 22.0642 90.246 21.9038 90.2419 21.7419C90.2454 21.5277 90.1657 21.3205 90.0194 21.164C89.7065 20.9494 89.3487 20.8091 88.9733 20.7536C86.4555 20.1988 84.8603 19.6912 84.188 19.2308C83.7451 18.9477 83.3833 18.5543 83.1381 18.0893C82.8929 17.6242 82.7728 17.1035 82.7894 16.578C82.7835 16.0849 82.8893 15.5967 83.099 15.1503C83.3087 14.7039 83.6168 14.3108 84.0002 14.0005C84.8074 13.3069 86.0596 12.9592 87.7568 12.9573C89.3692 12.9573 90.5684 13.2202 91.3544 13.7462C92.1589 14.302 92.7347 15.1304 92.9755 16.0781L90.031 16.6214C89.9278 16.1953 89.6743 15.8208 89.3172 15.5667C88.8634 15.2964 88.3389 15.1685 87.8117 15.1997C86.9881 15.1997 86.4015 15.3153 86.0461 15.5435C85.9376 15.6098 85.848 15.7028 85.7858 15.8136C85.7236 15.9244 85.6908 16.0493 85.6907 16.1764C85.6903 16.2908 85.7184 16.4035 85.7723 16.5044C85.8263 16.6052 85.9045 16.6911 85.9998 16.7543C86.283 16.9624 87.2549 17.2513 88.9155 17.6212C90.5761 17.9911 91.7368 18.4535 92.3976 19.0083C92.7237 19.2954 92.9809 19.6523 93.15 20.0526C93.3191 20.4528 93.3958 20.886 93.3743 21.32C93.3731 21.8565 93.2505 22.3857 93.0158 22.8681C92.7812 23.3505 92.4404 23.7736 92.0191 24.1057C91.1175 24.8763 89.7815 25.2615 88.0111 25.2615C86.4044 25.2615 85.1329 24.936 84.1967 24.2848C83.2786 23.6601 82.6231 22.7187 82.356 21.6408V21.6408Z" fill="#0056FF"/>
<path id="Vector_5" d="M96.1396 8.72692H102.647C103.613 8.70596 104.579 8.75909 105.537 8.88585C106.145 8.98496 106.725 9.21466 107.236 9.55915C107.749 9.91452 108.176 10.3794 108.487 10.9202C108.823 11.4979 108.996 12.1561 108.987 12.8245C108.992 13.5702 108.775 14.3006 108.363 14.9224C107.96 15.5577 107.379 16.0603 106.693 16.3672C107.596 16.5981 108.399 17.1164 108.981 17.8439C109.516 18.5485 109.797 19.4129 109.779 20.2972C109.777 21.0478 109.601 21.7877 109.265 22.4587C108.944 23.1285 108.457 23.7054 107.852 24.1347C107.196 24.5759 106.437 24.8415 105.65 24.9063C105.101 24.966 103.779 25.0026 101.685 25.0161H96.1396V8.72692ZM99.4281 11.4346V15.1911H101.581C102.861 15.1911 103.659 15.1738 103.968 15.1362C104.464 15.1014 104.933 14.8974 105.297 14.5583C105.459 14.3898 105.585 14.1904 105.668 13.9719C105.751 13.7534 105.789 13.5204 105.78 13.2868C105.799 12.8399 105.651 12.4018 105.364 12.0587C105.037 11.7185 104.595 11.5124 104.124 11.4808C103.798 11.4423 102.862 11.423 101.315 11.423L99.4281 11.4346ZM99.4281 17.9103V22.2506H102.471C103.224 22.2746 103.977 22.2418 104.725 22.1524C105.185 22.0784 105.607 21.849 105.918 21.5022C106.24 21.1148 106.404 20.6207 106.378 20.118C106.391 19.677 106.267 19.2426 106.022 18.8755C105.771 18.5227 105.41 18.2619 104.997 18.1328C104.544 17.9884 103.572 17.9161 102.081 17.9161L99.4281 17.9103Z" fill="#0056FF"/>
<path id="Vector_6" d="M112.53 11.6136V8.72388H115.651V11.6136H112.53ZM112.53 25.0043V13.2116H115.651V25.0043H112.53Z" fill="#0056FF"/>
<path id="Vector_7" d="M124.256 13.2114V15.6994H122.124V20.4529C122.104 21.0143 122.125 21.5763 122.184 22.1347C122.229 22.2977 122.332 22.4386 122.473 22.5306C122.628 22.6353 122.812 22.6889 122.999 22.6838C123.431 22.6553 123.856 22.5577 124.256 22.3948L124.522 24.8135C123.741 25.1362 122.902 25.2955 122.057 25.2816C121.536 25.2871 121.018 25.1889 120.534 24.9926C120.141 24.8462 119.796 24.5918 119.54 24.2586C119.305 23.8909 119.155 23.4753 119.101 23.0421C119.015 22.3124 118.983 21.5775 119.003 20.843V15.6994H117.558V13.2114H119.003V10.8679L122.135 9.04736V13.2114H124.256Z" fill="#0056FF"/>
<path id="Vector_8" d="M17 34C26.3888 34 34 26.3888 34 17C34 7.61116 26.3888 0 17 0C7.61116 0 0 7.61116 0 17C0 26.3888 7.61116 34 17 34Z" fill="#0056FF"/>
<path id="Vector_9" d="M37.0197 6.25024H30.1913L17.3236 17.809C17.2557 17.8702 17.1701 17.9082 17.0792 17.9176C16.9883 17.9269 16.8968 17.9071 16.8179 17.861L10.6166 14.2893C10.5377 14.2432 10.4462 14.2234 10.3553 14.2327C10.2644 14.2421 10.1788 14.2801 10.1109 14.3414L0.939087 22.5741C1.5125 24.22 2.33609 25.7678 3.38087 27.1629L10.79 20.5166C10.8581 20.4547 10.9442 20.4163 11.0357 20.4069C11.1273 20.3976 11.2194 20.4178 11.2986 20.4646L17.4825 24.0507C17.5634 24.0947 17.6562 24.112 17.7476 24.1001C17.839 24.0881 17.9242 24.0476 17.9911 23.9842L32.7921 10.6917L37.2075 6.72415C37.2413 6.68421 37.2637 6.63584 37.2722 6.58419C37.2806 6.53253 37.2749 6.47955 37.2556 6.43089C37.2364 6.38223 37.2042 6.33972 37.1627 6.3079C37.1211 6.27609 37.0717 6.25616 37.0197 6.25024Z" fill="#2DD2FF"/>
</g>
</g>
</svg>
