<?xml version="1.0" encoding="UTF-8"?>
<svg width="16px" height="16px" viewBox="0 0 16 16" version="1.1" xmlns="http://www.w3.org/2000/svg" xmlns:xlink="http://www.w3.org/1999/xlink">
    <!-- Generator: Sketch 59.1 (86144) - https://sketch.com -->
    <title>利空2</title>
    <desc>Created with Sketch.</desc>
    <g id="Page-1" stroke="none" stroke-width="1" fill="none" fill-rule="evenodd">
        <g id="快讯详情页2" transform="translate(-256.000000, -636.000000)">
            <g id="编组-4" transform="translate(256.000000, 636.000000)">
                <g id="编组备份-2">
                    <circle id="椭圆形" stroke="#EB4D3D" cx="8" cy="8" r="7.5"></circle>
                    <path d="M3.26982482,5.53391972 L6.61682205,9.82147615 L9.8000021,7.68275582 L12.3747102,11.0514424 C11.4106561,12.4309887 9.810705,13.3333333 8,13.3333333 C5.05448133,13.3333333 2.66666667,10.9455187 2.66666667,8 C2.66666667,7.11027534 2.88453209,6.27143587 3.26982482,5.53391972 Z M8,2.66666667 C10.9455187,2.66666667 13.3333333,5.05448133 13.3333333,8 C13.3333333,8.53561546 13.2543777,9.05278984 13.1074704,9.54051911 L10.1349596,5.65057751 L6.93948707,7.79755693 L4.18567903,4.27234344 C5.15402927,3.28162204 6.50519937,2.66666667 8,2.66666667 Z" id="形状结合" fill="#EB4D3D"></path>
                </g>
            </g>
        </g>
    </g>
</svg>