<!-- Generator: Adobe Illustrator 15.0.0, SVG Export Plug-In . SVG Version: 6.00 Build 0)  -->
<!DOCTYPE svg PUBLIC "-//W3C//DTD SVG 1.1//EN" "http://www.w3.org/Graphics/SVG/1.1/DTD/svg11.dtd">
<svg version="1.1" id="图层_1" xmlns="http://www.w3.org/2000/svg" xmlns:xlink="http://www.w3.org/1999/xlink" x="0px" y="0px"
	 width="24px" height="13px" viewBox="0 0 24 13" enable-background="new 0 0 24 13" xml:space="preserve">
<g>
	<g>
		<path fill="#D90303" d="M18,0H6C2.686,0,0,2.688,0,6v1c0,1.652,0,6,0,6s4.335,0,6,0h12c3.312,0,6-2.684,6-6V6
			C24,2.688,21.312,0,18,0z"/>
	</g>
</g>
<g>
	<path fill="#FFFFFF" d="M8.217,9.902H7.338V6.836H3.893v3.066H3.014V3.096h0.879v2.958h3.445V3.096h0.879V9.902z"/>
	<path fill="#FFFFFF" d="M9.535,6.581c0-1.099,0.297-1.973,0.893-2.624c0.594-0.65,1.399-0.976,2.416-0.976
		c0.945,0,1.707,0.318,2.285,0.954c0.576,0.636,0.865,1.463,0.865,2.483c0,1.105-0.295,1.98-0.887,2.628
		c-0.592,0.646-1.383,0.971-2.373,0.971c-0.967,0-1.742-0.318-2.324-0.953C9.826,8.428,9.535,7.601,9.535,6.581z M10.458,6.511
		c0,0.823,0.21,1.483,0.631,1.979c0.42,0.496,0.969,0.744,1.646,0.744c0.727,0,1.297-0.236,1.711-0.713s0.623-1.143,0.623-1.998
		c0-0.879-0.203-1.557-0.609-2.035s-0.963-0.716-1.668-0.716c-0.693,0-1.256,0.252-1.688,0.756
		C10.674,5.033,10.458,5.693,10.458,6.511z"/>
	<path fill="#FFFFFF" d="M20.986,3.878h-1.963v6.024h-0.885V3.878h-1.955V3.096h4.803V3.878z"/>
</g>
</svg>
