<?xml version="1.0" encoding="utf-8"?>
<!-- Generator: Adobe Illustrator 15.0.0, SVG Export Plug-In . SVG Version: 6.00 Build 0)  -->
<!DOCTYPE svg PUBLIC "-//W3C//DTD SVG 1.1//EN" "http://www.w3.org/Graphics/SVG/1.1/DTD/svg11.dtd">
<svg version="1.1" id="图层_1" xmlns="http://www.w3.org/2000/svg" xmlns:xlink="http://www.w3.org/1999/xlink" x="0px" y="0px"
	 width="20px" height="23px" viewBox="0 0 20 23" enable-background="new 0 0 20 23" xml:space="preserve">
<g>
	<g>
		<path fill="#666666" d="M10,12.25c3.112,0,5.625-2.513,5.625-5.625C15.625,3.512,13.112,1,10,1S4.375,3.512,4.375,6.625
			C4.375,9.737,6.888,12.25,10,12.25z M10,2.5c2.287,0,4.125,1.838,4.125,4.125S12.287,10.75,10,10.75S5.875,8.912,5.875,6.625
			S7.713,2.5,10,2.5z M18.662,10.449c-0.524-0.674-1.462-0.787-2.1-0.262L10,15.4l-6.563-5.176C3.175,10,2.838,9.887,2.5,9.887
			c-0.862,0-1.5,0.676-1.5,1.5L1.075,20.5c0,0.824,0.675,1.5,1.5,1.5h14.85c0.825,0,1.5-0.676,1.5-1.5L19,11.387
			C19,11.05,18.888,10.713,18.662,10.449z M17.388,20.5H2.575L2.5,11.35l7.5,5.963l7.5-5.963L17.388,20.5z M12.4,17.875h3.112
			c0.3,0,0.524-0.15,0.524-0.375c0-0.226-0.225-0.375-0.524-0.375H12.4c-0.301,0-0.525,0.149-0.525,0.375
			C11.875,17.725,12.1,17.875,12.4,17.875z"/>
	</g>
</g>
</svg>
