<svg width="16" height="16" viewBox="0 0 16 16" fill="none" xmlns="http://www.w3.org/2000/svg">
<g id="android">
<path id="Vector" d="M2.6404 5.5202C2.12181 5.5202 1.69922 5.94185 1.69922 6.46138V10.8529C1.71006 11.0952 1.81395 11.3241 1.98927 11.4917C2.16459 11.6594 2.39782 11.7529 2.6404 11.7529C2.88297 11.7529 3.1162 11.6594 3.29152 11.4917C3.46684 11.3241 3.57073 11.0952 3.58157 10.8529V6.46138C3.58157 5.94185 3.15898 5.5202 2.6404 5.5202ZM13.3067 5.5202C12.7882 5.5202 12.3656 5.94185 12.3656 6.46138V10.8529C12.3764 11.0952 12.4803 11.3241 12.6556 11.4917C12.8309 11.6594 13.0642 11.7529 13.3067 11.7529C13.5493 11.7529 13.7826 11.6594 13.9579 11.4917C14.1332 11.3241 14.2371 11.0952 14.2479 10.8529V6.46138C14.2479 5.94185 13.8263 5.5202 13.3067 5.5202ZM11.4244 5.5202H4.52275C4.43963 5.5202 4.35991 5.55322 4.30113 5.612C4.24236 5.67077 4.20934 5.75049 4.20934 5.83361V10.8538C4.20991 11.2152 4.33498 11.5653 4.56349 11.8453C4.792 12.1252 5.11 12.3179 5.46392 12.3908V14.6186C5.47476 14.8609 5.57866 15.0897 5.75398 15.2574C5.9293 15.425 6.16252 15.5186 6.4051 15.5186C6.64768 15.5186 6.88091 15.425 7.05622 15.2574C7.23154 15.0897 7.33544 14.8609 7.34628 14.6186V12.4218H8.60087V14.6186C8.61171 14.8609 8.7156 15.0897 8.89092 15.2574C9.06624 15.425 9.29947 15.5186 9.54204 15.5186C9.78462 15.5186 10.0178 15.425 10.1932 15.2574C10.3685 15.0897 10.4724 14.8609 10.4832 14.6186V12.3917C10.8376 12.3191 11.156 12.1265 11.3847 11.8463C11.6135 11.5661 11.7385 11.2155 11.7387 10.8538V5.83267C11.7387 5.79143 11.7306 5.7506 11.7148 5.71251C11.699 5.67443 11.6758 5.63984 11.6466 5.61072C11.6174 5.58161 11.5828 5.55854 11.5446 5.54284C11.5065 5.52715 11.4656 5.51913 11.4244 5.51926V5.5202ZM10.2545 1.79973L11.0187 1.03643C11.072 0.976552 11.1003 0.898609 11.098 0.818529C11.0957 0.738448 11.0629 0.662273 11.0063 0.605563C10.9497 0.548854 10.8736 0.515891 10.7935 0.513407C10.7135 0.510923 10.6354 0.539106 10.5755 0.592199L9.68416 1.48349C9.14555 1.24576 8.56278 1.12453 7.97404 1.12773C7.38499 1.12439 6.80189 1.24563 6.26298 1.48349L5.37263 0.592199C5.3434 0.562968 5.3087 0.539781 5.27051 0.523962C5.23231 0.508142 5.19138 0.5 5.15004 0.5C5.06656 0.5 4.98649 0.533165 4.92745 0.592199C4.86842 0.651233 4.83525 0.731301 4.83525 0.814787C4.83525 0.898274 4.86842 0.978341 4.92745 1.03738L5.69169 1.80161C4.78063 2.41902 4.2084 3.4129 4.2084 4.57996C4.2084 4.75314 4.34863 4.89338 4.52181 4.89338H11.4235C11.5966 4.89338 11.7378 4.7522 11.7378 4.57996C11.7378 3.4129 11.1656 2.41902 10.2536 1.80161L10.2545 1.79973ZM6.4051 3.63879C6.32185 3.63879 6.24202 3.60572 6.18315 3.54685C6.12429 3.48799 6.09122 3.40815 6.09122 3.3249C6.09122 3.24166 6.12429 3.16182 6.18315 3.10296C6.24202 3.04409 6.32185 3.01102 6.4051 3.01102C6.48835 3.01102 6.56819 3.04409 6.62705 3.10296C6.68591 3.16182 6.71898 3.24166 6.71898 3.3249C6.71898 3.40815 6.68591 3.48799 6.62705 3.54685C6.56819 3.60572 6.48835 3.63879 6.4051 3.63879V3.63879ZM9.54204 3.63879C9.49938 3.64112 9.45668 3.63474 9.41657 3.62002C9.37645 3.6053 9.33976 3.58256 9.30873 3.55318C9.2777 3.52381 9.25299 3.48841 9.2361 3.44916C9.21921 3.40992 9.2105 3.36763 9.2105 3.3249C9.2105 3.28218 9.21921 3.23989 9.2361 3.20065C9.25299 3.1614 9.2777 3.126 9.30873 3.09663C9.33976 3.06725 9.37645 3.04451 9.41657 3.02979C9.45668 3.01507 9.49938 3.00869 9.54204 3.01102C9.62232 3.01542 9.69786 3.05041 9.75313 3.10879C9.8084 3.16717 9.8392 3.24451 9.8392 3.3249C9.8392 3.4053 9.8084 3.48264 9.75313 3.54102C9.69786 3.5994 9.62232 3.63439 9.54204 3.63879Z" fill="currentColor"/>
</g>
</svg>
