<svg width="24" height="22" viewBox="0 0 24 22" fill="none" xmlns="http://www.w3.org/2000/svg">
<g id="Component 151">
<g id="Ellipse 88">
<circle cx="13" cy="11" r="11" fill="white" fill-opacity="0.15"/>
<circle cx="13" cy="11" r="10.45" stroke="white" stroke-opacity="0.25" stroke-width="1.1"/>
</g>
<g id="Group 6126">
<path id="Vector" d="M16.3226 8.99627H15.2524C15.1276 8.99627 15.009 8.94296 14.9265 8.85015L14.4923 8.3615C14.4276 8.28856 14.3345 8.24707 14.2371 8.24707C14.1396 8.24707 14.0465 8.28882 13.9819 8.3615L13.6095 8.78074C13.4876 8.91781 13.3127 8.99652 13.1289 8.99652H7.27024C7.10339 9.47034 6.99459 9.97079 6.95117 10.4899H12.4819C12.5791 10.4899 12.6723 10.4504 12.7394 10.3805L13.2543 9.84507C13.3187 9.77818 13.4076 9.74046 13.5005 9.74046H13.5217C13.6193 9.74046 13.7122 9.78221 13.7769 9.85516L14.2108 10.3438C14.2934 10.4368 14.412 10.4899 14.5367 10.4899H19.0512C19.0077 9.97059 18.899 9.47009 18.7321 8.99652L16.3226 8.99627Z" fill="white"/>
<path id="Vector_2" d="M10.2988 13.6288C10.396 13.6288 10.4892 13.5893 10.5563 13.5194L11.0713 12.984C11.1356 12.9171 11.2245 12.8794 11.3174 12.8794H11.3386C11.4363 12.8794 11.5292 12.921 11.5938 12.9938L12.0277 13.4824C12.1103 13.5754 12.2289 13.6285 12.3536 13.6285H18.4715C18.7007 13.1567 18.8686 12.6504 18.9685 12.1201H13.0963C12.9716 12.1201 12.8529 12.0667 12.7704 11.974L12.3365 11.4853C12.2718 11.4123 12.1787 11.3708 12.0812 11.3708C11.9838 11.3708 11.8907 11.4126 11.8261 11.4853L11.4537 11.9045C11.3318 12.0416 11.1568 12.1203 10.9728 12.1203H7.03516C7.13512 12.6507 7.30324 13.1569 7.53219 13.6288H10.2988Z" fill="white"/>
<path id="Vector_3" d="M14.639 7.36631C14.7362 7.36631 14.8294 7.32682 14.8964 7.25691L15.4114 6.72147C15.4758 6.65458 15.5646 6.61686 15.6575 6.61686H15.6788C15.7764 6.61686 15.8693 6.6586 15.9339 6.73154L16.3679 7.22019C16.4504 7.31324 16.5691 7.36631 16.6938 7.36631H17.8572C16.7493 5.89909 14.9871 4.94995 13.002 4.94995C11.0169 4.94995 9.25466 5.89909 8.14648 7.36631H14.639Z" fill="white"/>
<path id="Vector_4" d="M12.3017 15.1257H10.7107C10.586 15.1257 10.4673 15.0724 10.3848 14.9796L9.95087 14.4909C9.88625 14.418 9.7931 14.3765 9.69566 14.3765C9.59823 14.3765 9.50508 14.4182 9.44046 14.4909L9.06812 14.9101C8.9462 15.0472 8.77127 15.1259 8.58724 15.1259H8.5625C9.67093 16.3093 11.2494 17.0499 13.002 17.0499C14.7546 17.0499 16.3328 16.3093 17.4415 15.1259L12.3017 15.1257Z" fill="white"/>
</g>
</g>
</svg>
