<svg width="18" height="18" viewBox="0 0 18 18" fill="none" xmlns="http://www.w3.org/2000/svg">
<g id="Group 6725">
<path id="Star 12" d="M7.82464 1.01335C8.50003 0.431051 9.49997 0.43105 10.1754 1.01335L10.9764 1.70395C11.3094 1.9911 11.7361 2.14639 12.1758 2.14051L13.2333 2.12636C14.125 2.11443 14.891 2.75718 15.0341 3.63737L15.2038 4.68129C15.2744 5.11535 15.5014 5.50856 15.842 5.7867L16.6612 6.45563C17.3519 7.01965 17.5256 8.00439 17.0694 8.77064L16.5284 9.67941C16.3034 10.0573 16.2246 10.5044 16.3068 10.9364L16.5043 11.9754C16.6709 12.8515 16.1709 13.7175 15.329 14.0112L14.3304 14.3596C13.9152 14.5045 13.5673 14.7963 13.3526 15.1801L12.8361 16.103C12.4006 16.8812 11.4609 17.2232 10.6271 16.907L9.63821 16.532C9.22702 16.3761 8.77298 16.3761 8.36179 16.532L7.37288 16.907C6.53906 17.2232 5.59943 16.8812 5.16393 16.103L4.64742 15.1801C4.43265 14.7963 4.08484 14.5045 3.66962 14.3596L2.67104 14.0112C1.82906 13.7175 1.32909 12.8515 1.49567 11.9754L1.69325 10.9364C1.7754 10.5044 1.69655 10.0573 1.4716 9.67941L0.930583 8.77064C0.474414 8.00439 0.64805 7.01965 1.33878 6.45563L2.15799 5.7867C2.49861 5.50856 2.72563 5.11535 2.7962 4.68129L2.9659 3.63738C3.10899 2.75718 3.87498 2.11443 4.76666 2.12636L5.82418 2.14051C6.2639 2.14639 6.69056 1.9911 7.02362 1.70395L7.82464 1.01335Z" fill="url(#paint0_linear_3723_14301)"/>
<g id="Group 5841">
<path id="Union" fill-rule="evenodd" clip-rule="evenodd" d="M8.73254 11.6686C8.72704 11.6746 8.72139 11.6804 8.7156 11.6862C8.48124 11.9205 8.10134 11.9204 7.86707 11.686L5.72448 9.54256C5.49021 9.30819 5.49029 8.92829 5.72465 8.69403C5.95902 8.45976 6.33891 8.45984 6.57318 8.6942L8.29117 10.4129L12.1533 6.55074C12.3877 6.31642 12.7676 6.31642 13.0019 6.55074C13.2362 6.78505 13.2362 7.16495 13.0019 7.39926L8.73254 11.6686Z" fill="white"/>
</g>
</g>
<defs>
<linearGradient id="paint0_linear_3723_14301" x1="4.2" y1="-2.1" x2="14.1" y2="14.7" gradientUnits="userSpaceOnUse">
<stop stop-color="#F4BC2C"/>
<stop offset="1" stop-color="#E60000"/>
</linearGradient>
</defs>
</svg>
