<svg width="24" height="24" viewBox="0 0 24 24" fill="none" xmlns="http://www.w3.org/2000/svg">
<g id="Group 5608">
<path id="&#229;&#189;&#162;&#231;&#138;&#182;" d="M8.84989 4L9.03486 4.22643C5.71065 5.207 4.17695 6.69759 4.17695 6.69759C4.17695 6.69759 4.58462 6.46952 5.26706 6.14985C7.24255 5.26267 8.81397 5.01843 9.46049 4.96096C9.57004 4.943 9.66343 4.92324 9.77478 4.92324C11.012 4.75931 12.2647 4.74725 13.5049 4.88732C15.46 5.11601 17.35 5.73138 19.065 6.69759C19.065 6.69759 17.6067 5.28242 14.4657 4.30186L14.7243 4L14.8217 4.00108C15.3103 4.01502 17.5632 4.17926 19.9144 5.97923C19.9144 5.97923 22.576 10.9018 22.576 16.9737C22.576 16.9737 21.0045 19.7089 16.9225 19.84C16.9225 19.84 16.258 19.03 15.703 18.3135C18.1239 17.6149 19.047 16.0686 19.047 16.0686C18.2891 16.5769 17.569 16.936 16.9225 17.1821C16.0646 17.5558 15.1659 17.8276 14.2448 17.992C12.6633 18.2897 11.0397 18.2836 9.46049 17.9741C8.4063 17.7657 7.50116 17.464 6.74329 17.1623C6.31946 16.9917 5.85792 16.7852 5.39637 16.5212L5.22935 16.426C5.19163 16.408 5.17368 16.3883 5.15572 16.3703C4.82347 16.1818 4.64029 16.0489 4.64029 16.0489C4.64029 16.0489 5.52567 17.5574 7.87292 18.2758C7.31619 18.9923 6.63374 19.84 6.63374 19.84C3.13481 19.7261 1.49497 17.7016 1.09785 17.1255L1.02411 17.0136C1.00792 16.9877 1 16.9737 1 16.9737C1 10.9018 3.65973 5.98103 3.65973 5.98103C6.01257 4.17946 8.26422 4.01504 8.75251 4.00108L8.84989 4ZM8.22132 11.3759C7.14198 11.3759 6.28893 12.1841 6.28893 13.1718C6.28893 14.1596 7.16174 14.9677 8.22132 14.9677C9.30066 14.9677 10.1519 14.1596 10.1519 13.1718C10.1717 12.1841 9.29886 11.3759 8.22132 11.3759ZM15.132 11.3759C14.0526 11.3759 13.2014 12.1841 13.2014 13.1718C13.2014 14.1596 14.0724 14.9677 15.132 14.9677C16.2113 14.9677 17.0643 14.1596 17.0643 13.1718C17.0643 12.1841 16.2113 11.3759 15.132 11.3759Z" fill="#5865F2"/>
</g>
</svg>
