<svg width="20" height="20" viewBox="0 0 20 20" fill="none" xmlns="http://www.w3.org/2000/svg">
<g id="Group 106667">
<path id="Vector" d="M9.99935 18.3346C12.3005 18.3346 14.3838 17.4019 15.8919 15.8938C17.3999 14.3858 18.3327 12.3025 18.3327 10.0013C18.3327 7.70014 17.3999 5.6168 15.8919 4.10874C14.3838 2.60071 12.3005 1.66797 9.99935 1.66797C7.69818 1.66797 5.61485 2.60071 4.10679 4.10874C2.59876 5.6168 1.66602 7.70014 1.66602 10.0013C1.66602 12.3025 2.59876 14.3858 4.10679 15.8938C5.61485 17.4019 7.69818 18.3346 9.99935 18.3346Z" stroke="#9FACBF" stroke-width="1.5" stroke-linejoin="round"/>
<path id="Vector_2" fill-rule="evenodd" clip-rule="evenodd" d="M10.001 4.87305C10.4152 4.87305 10.751 5.20884 10.751 5.62305C10.751 6.03726 10.4152 6.37305 10.001 6.37305C9.58677 6.37305 9.25098 6.03726 9.25098 5.62305C9.25098 5.20884 9.58677 4.87305 10.001 4.87305Z" fill="#9FACBF"/>
<path id="Vector_3" d="M10.2083 14.1673V8.33398H9.79167H9.375" stroke="#9FACBF" stroke-width="1.5" stroke-linecap="round" stroke-linejoin="round"/>
<path id="Vector_4" d="M8.75 14.166H11.6667" stroke="#9FACBF" stroke-width="1.5" stroke-linecap="round" stroke-linejoin="round"/>
</g>
</svg>
