<svg width="135" height="20" viewBox="0 0 135 20" fill="none" xmlns="http://www.w3.org/2000/svg">
<g id="&#233;&#161;&#181;&#233;&#157;&#162;1">
<g id="&#231;&#188;&#150;&#231;&#187;&#132;-3">
<path id="Fill-1" fill-rule="evenodd" clip-rule="evenodd" d="M15.2192 3.63315C15.3292 3.65088 15.4282 3.6117 15.4698 3.53225C15.6437 3.20016 15.7409 2.76429 15.7297 2.27701C15.7049 1.18589 15.1379 0.197304 14.4408 0.0258971C13.719 -0.151558 13.0928 0.600187 13.0645 1.75289C13.0518 2.26876 13.1622 2.77144 13.357 3.18655C13.403 3.28483 13.5119 3.36002 13.6315 3.37913L15.2192 3.63315Z" fill="currentColor"/>
<path id="Fill-3" fill-rule="evenodd" clip-rule="evenodd" d="M14.4403 5.7185C13.8721 5.65857 13.4065 5.20456 13.4152 4.71343L13.422 4.30917C13.4248 4.15343 13.5775 4.04938 13.7617 4.07591L15.0969 4.26766C15.2679 4.29226 15.4073 4.43219 15.4098 4.58119L15.4161 4.96758C15.4238 5.43699 14.993 5.77692 14.4403 5.7185Z" fill="currentColor"/>
<path id="Fill-29" fill-rule="evenodd" clip-rule="evenodd" d="M18.5109 5.83839C18.5829 5.91193 18.6854 5.94492 18.7711 5.92059C19.1282 5.81832 19.4931 5.61076 19.8043 5.31372C20.4863 4.66287 20.6689 3.80748 20.2498 3.36034C19.8269 2.90907 18.9101 2.99938 18.1601 3.60199C17.8174 3.87745 17.5668 4.21325 17.4313 4.54974C17.3989 4.63016 17.427 4.73146 17.5007 4.80679L18.5109 5.83839Z" fill="currentColor"/>
<path id="Fill-31" fill-rule="evenodd" clip-rule="evenodd" d="M16.4748 6.67055C16.0998 6.299 16.0851 5.75564 16.4346 5.46753L16.719 5.23317C16.8278 5.14369 17.0091 5.16678 17.1247 5.28375L17.9858 6.1555C18.0991 6.27027 18.1094 6.43879 18.008 6.53336L17.7431 6.78023C17.4175 7.0836 16.8469 7.03934 16.4748 6.67055Z" fill="currentColor"/>
<path id="Fill-5" fill-rule="evenodd" clip-rule="evenodd" d="M10.8366 3.88397C10.9384 3.82171 10.977 3.71325 10.9327 3.607C10.7445 3.15876 10.3891 2.65457 9.88578 2.16536C8.70764 1.02063 7.10655 0.345176 6.29954 0.695276C5.45184 1.06311 5.82751 2.3967 7.1482 3.62886C7.71177 4.15462 8.34393 4.56163 8.93444 4.81317C9.07218 4.87187 9.23492 4.8628 9.34833 4.79352L10.8366 3.88397Z" fill="currentColor"/>
<path id="Fill-7" fill-rule="evenodd" clip-rule="evenodd" d="M12.1819 6.29969C11.7127 6.641 10.954 6.5823 10.4982 6.15413L10.1143 5.79372C9.96416 5.65283 9.97928 5.44967 10.1467 5.34149L11.3494 4.56473C11.502 4.46617 11.7373 4.49614 11.876 4.63029L12.2314 4.97366C12.6534 5.38135 12.6356 5.96952 12.1819 6.29969Z" fill="currentColor"/>
<path id="Fill-9" fill-rule="evenodd" clip-rule="evenodd" d="M7.6815 7.28754C7.69565 7.15902 7.61098 7.03613 7.4628 6.97565C6.82679 6.71641 5.97442 6.52521 4.99133 6.45552C2.57031 6.28397 0.247843 6.91256 0.0182908 7.90334C-0.218959 8.92683 1.88371 9.7906 4.47133 9.80078C5.5182 9.80476 6.45896 9.66538 7.18267 9.43666C7.34967 9.38387 7.46514 9.25975 7.48026 9.12298L7.6815 7.28754Z" fill="currentColor"/>
<path id="Fill-11" fill-rule="evenodd" clip-rule="evenodd" d="M11.0561 8.32401C11.0245 8.90902 10.4232 9.38338 9.69251 9.37335L9.06351 9.36455C8.81416 9.36125 8.62516 9.19232 8.64385 8.98888L8.78035 7.49831C8.79794 7.3056 9.00839 7.16223 9.24825 7.17694L9.85333 7.21433C10.5572 7.25763 11.0871 7.74972 11.0561 8.32401Z" fill="currentColor"/>
<path id="Fill-13" fill-rule="evenodd" clip-rule="evenodd" d="M8.7167 12.1306C8.60467 12.0336 8.42543 12.0076 8.25938 12.0685C7.53979 12.3321 6.71767 12.7982 5.91355 13.4446C3.90558 15.0584 2.85019 17.0991 3.76785 17.8103C4.67039 18.5099 6.99753 17.5359 8.78433 15.8307C9.5013 15.1463 10.019 14.4503 10.3134 13.8406C10.3816 13.6991 10.3531 13.5477 10.2445 13.4535L8.7167 12.1306Z" fill="currentColor"/>
<path id="Fill-15" fill-rule="evenodd" clip-rule="evenodd" d="M12.0228 10.5739C12.4854 10.9947 12.4642 11.699 11.9635 12.1657L11.5309 12.5687C11.3591 12.7288 11.0883 12.7457 10.9276 12.6043L9.70188 11.5258C9.5368 11.3805 9.55494 11.1368 9.74078 10.9835L10.2085 10.5983C10.7499 10.1522 11.556 10.1493 12.0228 10.5739Z" fill="currentColor"/>
<path id="Fill-17" fill-rule="evenodd" clip-rule="evenodd" d="M13.4771 14.4252C13.334 14.4405 13.201 14.5368 13.141 14.6728C12.8832 15.2589 12.7153 16.0075 12.6954 16.8208C12.6476 18.7668 13.4484 20.2173 14.4415 19.9732C15.3882 19.7404 16.0895 18.0543 16.0491 16.28C16.0322 15.5363 15.8885 14.8838 15.6635 14.3911C15.6104 14.2751 15.4915 14.2105 15.3621 14.2244L13.4771 14.4252Z" fill="currentColor"/>
<path id="Fill-19" fill-rule="evenodd" clip-rule="evenodd" d="M14.4399 11.4484C15.0446 11.4268 15.5295 11.877 15.5391 12.4627L15.5472 12.9598C15.5505 13.1553 15.3951 13.3278 15.1982 13.3443L13.6521 13.4742C13.4375 13.4922 13.2649 13.3381 13.2686 13.1308L13.2777 12.6037C13.2885 11.9836 13.8165 11.4705 14.4399 11.4484Z" fill="currentColor"/>
<path id="Fill-21" fill-rule="evenodd" clip-rule="evenodd" d="M17.9167 12.8611C17.8418 12.9521 17.822 13.0818 17.8693 13.1907C18.0701 13.6534 18.4118 14.138 18.8627 14.5586C19.8847 15.5122 21.0337 15.7428 21.4329 15.1169C21.8154 14.5169 21.3733 13.3286 20.443 12.4244C20.033 12.0262 19.5889 11.7396 19.1773 11.5849C19.0792 11.548 18.9718 11.5787 18.9039 11.6612L17.9167 12.8611Z" fill="currentColor"/>
<path id="Fill-23" fill-rule="evenodd" clip-rule="evenodd" d="M16.6028 10.5133C16.9678 10.1313 17.565 10.1293 17.9436 10.4953L18.2579 10.799C18.3795 10.9166 18.3913 11.1121 18.2836 11.2373L17.4367 12.2202C17.3192 12.3566 17.1175 12.3692 16.9871 12.2468L16.65 11.9304C16.2433 11.5486 16.2258 10.9077 16.6028 10.5133Z" fill="currentColor"/>
<path id="Fill-25" fill-rule="evenodd" clip-rule="evenodd" d="M19.6221 9.34669C19.6305 9.44882 19.6941 9.54325 19.7852 9.58476C20.1676 9.75961 20.6365 9.86421 21.1239 9.866C22.1954 9.87026 22.9492 9.37666 22.8688 8.77433C22.7898 8.18327 21.9279 7.65544 20.8861 7.58176C20.413 7.54822 19.9757 7.61241 19.6317 7.74959C19.5492 7.78244 19.5018 7.86781 19.5096 7.96526L19.6221 9.34669Z" fill="currentColor"/>
<path id="Fill-27" fill-rule="evenodd" clip-rule="evenodd" d="M17.3428 8.5637C17.32 8.069 17.7015 7.69842 18.1832 7.72811L18.5762 7.75244C18.7267 7.76165 18.8566 7.89195 18.8674 8.04412L18.9503 9.21359C18.9616 9.37235 18.8467 9.49991 18.6923 9.49771L18.2896 9.49208C17.7954 9.48534 17.3659 9.06624 17.3428 8.5637Z" fill="currentColor"/>
<path id="Fill-33" fill-rule="evenodd" clip-rule="evenodd" d="M16.5355 8.5328C16.5713 9.61115 15.6629 10.5254 14.4399 10.5417C13.1385 10.559 12.0581 9.56565 12.1029 8.36387C12.1461 7.20663 13.2221 6.38918 14.4399 6.49447C15.5887 6.59385 16.5007 7.49034 16.5355 8.5328Z" fill="currentColor"/>
<path id="&#232;&#183;&#175;&#229;&#190;&#132;" d="M27.5947 6.36304V13.9696H29.5805V11.2243H32.9877V9.64003H29.5805V7.94728H33.2698L33.2807 6.36304H27.5947Z" fill="currentColor"/>
<path id="&#229;&#189;&#162;&#231;&#138;&#182;&#231;&#187;&#147;&#229;&#144;&#136;" d="M36.9052 8.03491C38.8366 8.03491 40.1171 9.22852 40.1171 11.0298C40.1171 12.8419 38.8366 14.0355 36.9052 14.0355C34.9737 14.0355 33.7041 12.8419 33.7041 11.0298C33.7041 9.22852 34.9737 8.03491 36.9052 8.03491ZM36.9052 9.59745C36.1564 9.59745 35.6464 10.1834 35.6464 11.0515C35.6464 11.9304 36.1564 12.5164 36.9052 12.5164C37.6647 12.5164 38.1747 11.9304 38.1747 11.0515C38.1747 10.1834 37.6647 9.59745 36.9052 9.59745Z" fill="currentColor"/>
<path id="&#229;&#189;&#162;&#231;&#138;&#182;&#231;&#187;&#147;&#229;&#144;&#136;_2" d="M43.828 8.03479C45.7595 8.03479 47.0399 9.2284 47.0399 11.0297C47.0399 12.8418 45.7595 14.0354 43.828 14.0354C41.8965 14.0354 40.627 12.8418 40.627 11.0297C40.627 9.2284 41.8965 8.03479 43.828 8.03479ZM43.828 9.59733C43.0793 9.59733 42.5693 10.1833 42.5693 11.0514C42.5693 11.9303 43.0793 12.5162 43.828 12.5162C44.5876 12.5162 45.0976 11.9303 45.0976 11.0514C45.0976 10.1833 44.5876 9.59733 43.828 9.59733Z" fill="currentColor"/>
<path id="&#232;&#183;&#175;&#229;&#190;&#132;_2" d="M51.4766 12.299C51.1945 12.4184 50.9449 12.4943 50.7496 12.4943C50.4132 12.5052 50.2179 12.3098 50.2179 11.8758V9.66221H51.737V8.3818H50.2179V6.75415H48.2972V8.3818H47.4834V9.66221H48.2972V12.1796C48.2972 13.3949 49.1219 14.0677 50.2613 14.0569C50.8364 14.0569 51.4223 13.9158 51.8455 13.6662L51.4766 12.299Z" fill="currentColor"/>
<path id="&#229;&#189;&#162;&#231;&#138;&#182;&#231;&#187;&#147;&#229;&#144;&#136;_3" d="M56.482 8.03479C58.1205 8.03479 59.2165 9.23925 59.2165 11.0622C59.2165 12.8526 58.1531 14.0354 56.5254 14.0354C55.7767 14.0354 55.169 13.7424 54.7567 13.2107V16.0754H52.8252V8.0999H54.7567V8.85946C55.169 8.32777 55.755 8.03479 56.482 8.03479ZM56.0045 9.55393C55.2667 9.55393 54.7567 10.1507 54.7567 11.0188C54.7567 11.8869 55.2667 12.4728 56.0045 12.4728C56.7641 12.4728 57.2741 11.8869 57.2741 11.0188C57.2741 10.1507 56.7641 9.55393 56.0045 9.55393Z" fill="currentColor"/>
<path id="&#232;&#183;&#175;&#229;&#190;&#132;_3" d="M62.1414 9.07623V8.09964H60.21V13.97H62.1414V10.9751C62.2391 10.1613 62.9553 9.68388 64.0295 9.79239V8.02368C63.2048 8.02368 62.5429 8.40347 62.1414 9.07623Z" fill="currentColor"/>
<path id="&#232;&#183;&#175;&#229;&#190;&#132;_4" d="M65.8457 5.56079C65.3357 5.56079 64.9668 5.92972 64.9668 6.45057C64.9668 6.96057 65.3357 7.3295 65.8457 7.3295C66.3557 7.3295 66.7247 6.96057 66.7247 6.45057C66.7247 5.92972 66.3557 5.56079 65.8457 5.56079Z" fill="currentColor"/>
<path id="&#232;&#183;&#175;&#229;&#190;&#132;_5" d="M64.8789 8.09973V13.9701H66.7995V8.09973H64.8789Z" fill="currentColor"/>
<path id="&#232;&#183;&#175;&#229;&#190;&#132;_6" d="M72.1492 8.02429C71.292 8.02429 70.6192 8.38237 70.2069 9.05513V8.10025H68.2754V13.9706H70.2069V10.8672C70.2828 10.2053 70.706 9.76045 71.3571 9.7496C71.9647 9.7496 72.3554 10.1619 72.3554 10.8238V13.9706H74.276V10.2704C74.276 8.89237 73.4296 8.02429 72.1492 8.02429Z" fill="currentColor"/>
<path id="&#232;&#183;&#175;&#229;&#190;&#132;_7" d="M79.0391 12.2994C78.757 12.4187 78.5074 12.4947 78.3121 12.4947C77.9757 12.5055 77.7804 12.3102 77.7804 11.8762V9.66258H79.2995V8.38216H77.7804V6.75452H75.8597V8.38216H75.0459V9.66258H75.8597V12.18C75.8597 13.3953 76.6844 14.0681 77.8238 14.0572C78.3989 14.0572 78.9848 13.9162 79.408 13.6666L79.0391 12.2994Z" fill="currentColor"/>
<path id="&#229;&#189;&#162;&#231;&#138;&#182;&#231;&#187;&#147;&#229;&#144;&#136;_4" d="M88.0962 6.36353L91.2864 13.9701H89.1705L88.6496 12.6245H85.3617L84.83 13.9701H82.79L86.0562 6.36353H88.0962ZM87.0219 8.39266L85.9585 11.1054H88.0636L87.0219 8.39266Z" fill="currentColor"/>
<path id="&#232;&#183;&#175;&#229;&#190;&#132;_8" d="M95.8455 8.02454C94.9883 8.02454 94.3155 8.38262 93.9032 9.05538V8.10049H91.9717V13.9709H93.9032V10.8675C93.9791 10.2056 94.4023 9.76069 95.0534 9.74984C95.661 9.74984 96.0517 10.1622 96.0517 10.8241V13.9709H97.9723V10.2707C97.9723 8.89261 97.1259 8.02454 95.8455 8.02454Z" fill="currentColor"/>
<path id="&#229;&#189;&#162;&#231;&#138;&#182;&#231;&#187;&#147;&#229;&#144;&#136;_5" d="M101.936 8.02368C103.553 8.02368 104.497 8.80495 104.508 10.1505V13.97H102.609V13.3081C102.229 13.7964 101.633 14.0568 100.84 14.0568C99.5817 14.0568 98.833 13.2973 98.833 12.223C98.833 11.1054 99.6251 10.4651 101.079 10.4434H102.609V10.3783C102.609 9.82494 102.229 9.49941 101.492 9.49941C101.003 9.49941 100.363 9.66218 99.7336 9.966L99.2019 8.66389C100.124 8.25155 100.971 8.02368 101.936 8.02368ZM102.609 11.4743H101.459C100.916 11.4743 100.645 11.6696 100.645 12.0819C100.645 12.4834 100.938 12.7439 101.437 12.7439C102.012 12.7439 102.49 12.4292 102.609 11.9843V11.4743Z" fill="currentColor"/>
<path id="&#232;&#183;&#175;&#229;&#190;&#132;_9" d="M105.864 5.91895V13.9704H107.796V5.91895H105.864Z" fill="currentColor"/>
<path id="&#232;&#183;&#175;&#229;&#190;&#132;_10" d="M112.491 14.5458L115.008 8.10034H113.087L111.84 11.9199L110.44 8.10034H108.454L110.885 13.8297L110.744 14.1009C110.592 14.3939 110.364 14.5458 110.038 14.5458C109.756 14.5458 109.528 14.4482 109.257 14.2203L108.454 15.555C108.986 15.9673 109.528 16.1626 110.19 16.1626C111.297 16.1626 112.046 15.6418 112.491 14.5458Z" fill="currentColor"/>
<path id="&#232;&#183;&#175;&#229;&#190;&#132;_11" d="M119.113 12.299C118.831 12.4184 118.582 12.4943 118.386 12.4943C118.05 12.5052 117.855 12.3098 117.855 11.8758V9.66221H119.374V8.3818H117.855V6.75415H115.934V8.3818H115.12V9.66221H115.934V12.1796C115.934 13.3949 116.759 14.0677 117.898 14.0569C118.473 14.0569 119.059 13.9158 119.482 13.6662L119.113 12.299Z" fill="currentColor"/>
<path id="&#232;&#183;&#175;&#229;&#190;&#132;_12" d="M121.368 5.56079C120.858 5.56079 120.489 5.92972 120.489 6.45057C120.489 6.96057 120.858 7.3295 121.368 7.3295C121.878 7.3295 122.247 6.96057 122.247 6.45057C122.247 5.92972 121.878 5.56079 121.368 5.56079Z" fill="currentColor"/>
<path id="&#232;&#183;&#175;&#229;&#190;&#132;_13" d="M120.401 8.10034V13.9707H122.322V8.10034H120.401Z" fill="currentColor"/>
<path id="&#232;&#183;&#175;&#229;&#190;&#132;_14" d="M127.59 10.2375L128.989 9.42371C128.479 8.54479 127.546 8.03479 126.363 8.03479C124.541 8.03479 123.325 9.23925 123.325 11.0622C123.325 12.8526 124.53 14.0354 126.342 14.0354C127.59 14.0354 128.545 13.5254 129.011 12.6247L127.59 11.8109C127.351 12.2667 126.949 12.4728 126.439 12.4728C125.745 12.4728 125.268 11.9086 125.268 11.0514C125.268 10.205 125.745 9.62988 126.439 9.62988C126.939 9.62988 127.329 9.85775 127.59 10.2375Z" fill="currentColor"/>
<path id="&#232;&#183;&#175;&#229;&#190;&#132;_15" d="M133.817 9.95526L134.469 8.69655C133.731 8.25166 132.873 8.01294 132.027 8.01294C130.649 8.01294 129.618 8.6857 129.618 9.91186C129.618 11.941 132.646 11.5395 132.646 12.3425C132.646 12.5812 132.385 12.7006 132.027 12.7006C131.376 12.7006 130.616 12.4401 129.944 11.9735L129.336 13.2214C130.052 13.7748 130.996 14.0569 131.984 14.0569C133.416 14.0569 134.469 13.3733 134.469 12.1689C134.479 10.1289 131.398 10.4978 131.398 9.72739C131.398 9.47782 131.626 9.35846 131.951 9.35846C132.428 9.35846 133.09 9.57548 133.817 9.95526Z" fill="currentColor"/>
</g>
</g>
</svg>
