<svg width="112" height="28" viewBox="0 0 112 28" fill="none" xmlns="http://www.w3.org/2000/svg">
<g id="Group 5825">
<g id="&#229;&#155;&#190;&#229;&#177;&#130; 2">
<g id="&#229;&#155;&#190;&#229;&#177;&#130; 1">
<path id="Vector" fill-rule="evenodd" clip-rule="evenodd" d="M16.9585 13.7285L19.7464 8.5372L16.1894 2H10.5174L1 19.3044H6.67198L13.352 7.1602L16.9585 13.7285Z" fill="#E60000"/>
<path id="Vector_2" fill-rule="evenodd" clip-rule="evenodd" d="M23.5934 8.53906L16.9134 20.6832L13.3055 14.1149L10.5176 19.3062L14.0746 25.8448H19.7466L29.2654 8.53906H23.5934Z" fill="#E60000"/>
<path id="Vector_3" d="M72.5118 21.6941L64.0477 6.14844H60.15L51.707 21.6941H55.5213L62.0076 9.5669L64.6386 14.45L64.8125 14.7738H60.3338L58.6811 17.9095H66.4991L68.5335 21.6941H72.5118Z" fill="currentColor"/>
<path id="Vector_4" d="M111 21.6941L102.536 6.14844H98.6397L90.1953 21.6941H94.0096L100.497 9.5669L103.127 14.45L103.301 14.7738H98.822L97.1694 17.9095H104.987L107.023 21.6941H111Z" fill="currentColor"/>
<path id="Vector_5" d="M46.7904 6.14844V17.3114L37.1839 6.14844H33.1533V21.6941H36.5265V10.5311L46.1344 21.6941H50.165V6.14844H46.7904Z" fill="currentColor"/>
<path id="Vector_6" d="M76.3151 10.7123C76.6932 10.324 77.1463 10.0166 77.6469 9.80891C78.1849 9.58776 78.7618 9.47671 79.3434 9.48233H88.653V6.1487H79.3434C78.3212 6.14052 77.3067 6.32567 76.3533 6.69441C75.4565 7.04342 74.6391 7.56942 73.9499 8.24105C73.2558 8.92645 72.7134 9.7501 72.3581 10.6586C71.9722 11.6496 71.7802 12.7054 71.7925 13.7688C71.7846 14.8378 71.9764 15.8989 72.3581 16.8975C72.7071 17.8257 73.2387 18.6746 73.9212 19.3941C74.6038 20.1135 75.4235 20.689 76.3321 21.0864C77.2818 21.4994 78.3078 21.708 79.3434 21.6986H88.653V12.3367H80.1167L78.4641 15.4738H85.2996V18.3621H79.3434C78.7607 18.3684 78.1831 18.2538 77.6469 18.0256C77.1449 17.8114 76.6915 17.4978 76.3137 17.1039C75.9303 16.6955 75.6319 16.2149 75.4358 15.6901C75.2181 15.1158 75.1093 14.506 75.1149 13.8918C75.1073 13.2781 75.2157 12.6685 75.4344 12.0949C75.6333 11.5802 75.9327 11.1101 76.3151 10.7123Z" fill="currentColor"/>
</g>
</g>
</g>
</svg>
