<svg width="16" height="16" viewBox="0 0 16 16" fill="none" xmlns="http://www.w3.org/2000/svg">
<g id="Game">
<g id="Group 5553">
<path id="Vector (Stroke)" fill-rule="evenodd" clip-rule="evenodd" d="M5.60052 3.70117C4.12215 3.70117 3.01177 5.03062 2.73324 6.64612L2.73083 6.66008L1.88533 10.3143C1.68655 11.1753 2.2234 12.0345 3.0844 12.2332C3.94541 12.432 4.80454 11.8952 5.00332 11.0342L5.20577 10.1572C5.25814 9.93042 5.46011 9.76975 5.6929 9.76972L10.7007 9.76912L10.9977 11.0342C11.1965 11.8952 12.0556 12.432 12.9166 12.2332C13.7776 12.0345 14.3144 11.1755 14.1158 10.3146C14.1158 10.3145 14.1158 10.3146 14.1158 10.3146L13.2702 6.66008L13.2678 6.64613C12.9892 5.03061 11.8789 3.70117 10.4005 3.70117H5.60052ZM1.75026 6.46192C2.07622 4.60196 3.43934 2.70117 5.60052 2.70117H10.4005C12.5617 2.70117 13.9248 4.60195 14.2507 6.46189L15.09 10.0891C15.413 11.4883 14.5407 12.8846 13.1416 13.2076C11.7428 13.5306 10.347 12.6586 10.0236 11.2601C10.0235 11.2597 10.0234 11.2594 10.0234 11.2591L9.90832 10.7692L6.09069 10.7697L5.97769 11.2591C5.65467 12.6583 4.25859 13.5306 2.85945 13.2076C1.46032 12.8846 0.587948 11.4885 0.910964 10.0894L1.75026 6.46192Z" fill="currentColor"/>
<path id="Subtract" fill-rule="evenodd" clip-rule="evenodd" d="M5.49039 11.1457L5.69285 10.2687L10.3044 10.2682L10.5104 11.1457C10.7713 12.2757 11.8989 12.9803 13.029 12.7194C14.1591 12.4586 14.8637 11.3309 14.6028 10.2009L13.7604 6.56019C13.4604 4.82019 12.2229 3.2002 10.4004 3.2002H5.6004C3.77786 3.2002 2.54039 4.82019 2.2404 6.56019L1.39804 10.2009C1.13714 11.331 1.84175 12.4586 2.97182 12.7195C4.10189 12.9804 5.22949 12.2758 5.49039 11.1457ZM4.23385 6.50028C4.23385 6.24254 4.44278 6.03361 4.70051 6.03361H5.43388V5.30041C5.43388 5.04267 5.64281 4.83374 5.90055 4.83374C6.15828 4.83374 6.36721 5.04267 6.36721 5.30041V6.03361H7.10051C7.35825 6.03361 7.56718 6.24254 7.56718 6.50028C7.56718 6.75801 7.35825 6.96694 7.10051 6.96694H6.36721V7.70041C6.36721 7.95814 6.15828 8.16707 5.90055 8.16707C5.64281 8.16707 5.43388 7.95814 5.43388 7.70041V6.96694H4.70051C4.44278 6.96694 4.23385 6.75801 4.23385 6.50028ZM9.80055 6.70028C9.41395 6.70028 9.10055 7.01368 9.10055 7.40028C9.10055 7.78688 9.41395 8.10028 9.80055 8.10028C10.1871 8.10028 10.5005 7.78688 10.5005 7.40028C10.5005 7.01368 10.1871 6.70028 9.80055 6.70028ZM10.3006 5.90028C10.3006 5.51368 10.614 5.20028 11.0006 5.20028C11.3872 5.20028 11.7006 5.51368 11.7006 5.90028C11.7006 6.28688 11.3872 6.60028 11.0006 6.60028C10.614 6.60028 10.3006 6.28688 10.3006 5.90028Z" fill="currentColor"/>
</g>
</g>
</svg>
