<svg width="20" height="20" viewBox="0 0 20 20" fill="none" xmlns="http://www.w3.org/2000/svg">
<g id="Group 106664">
<path id="Vector" d="M18.2907 9.46707C17.4301 5.59753 16.2148 4.64288 15.4757 4.26063C14.2918 3.64707 12.9176 4.00384 12.4628 4.23515C11.9453 4.49586 11.5964 4.99377 11.0711 5.2094C10.4634 5.45835 9.63615 5.525 9.01475 5.22508C8.51881 4.98593 8.08167 4.4743 7.48183 4.24691C6.72126 3.95875 5.45297 3.5569 4.20037 4.43706C3.90241 4.6468 1.7873 6.38359 1.15414 11.8135C0.762086 15.1616 2.63413 16.2378 2.56552 16.1888C3.04774 16.5279 4.12588 17.0983 5.58823 16.2025C6.56444 15.6046 7.35834 14.4206 7.35834 14.4206C7.35834 14.4206 7.71118 13.762 8.18164 13.4836C8.51293 13.2856 9.01083 13.4366 9.01083 13.4366H10.7692C10.7692 13.4366 11.3279 13.368 11.7179 13.5366C12.0982 13.6993 12.3139 14.1011 12.3139 14.1011C12.3139 14.1011 13.4724 15.5693 14.5819 16.3162C15.0543 16.6338 16.9538 17.0003 17.9359 15.8261C18.5729 15.0597 19.0101 12.6976 18.2907 9.46707ZM8.90106 9.12402C8.90106 9.41806 8.66191 9.65525 8.36787 9.65525H7.03686V10.9882C7.03686 11.2823 6.79771 11.5214 6.50367 11.5214H6.10378C5.80974 11.5214 5.57059 11.2842 5.57059 10.9882V9.65525H4.23958C3.94554 9.65525 3.70639 9.41806 3.70639 9.12402V8.72413C3.70639 8.43009 3.94554 8.19094 4.23958 8.19094H5.57059V6.85993C5.57059 6.56589 5.80974 6.32674 6.10378 6.32674H6.50367C6.79771 6.32674 7.03686 6.56589 7.03686 6.85993V8.19094H8.36787C8.66191 8.19094 8.90106 8.42813 8.90106 8.72413V9.12402ZM12.653 10.9882C12.1022 10.9882 11.6552 10.5413 11.6552 9.98849C11.6552 9.43766 12.1022 8.99072 12.653 8.99072C13.2038 8.99072 13.6508 9.43766 13.6508 9.98849C13.6508 10.5413 13.2038 10.9882 12.653 10.9882ZM14.4839 8.76921C13.9389 8.76921 13.4959 8.3262 13.4959 7.78125C13.4959 7.2363 13.9389 6.79524 14.4839 6.79524C15.0288 6.79524 15.4718 7.23826 15.4718 7.78125C15.4699 8.3262 15.0288 8.76921 14.4839 8.76921Z" fill="white"/>
</g>
</svg>
