<svg width="16" height="16" viewBox="0 0 16 16" fill="none" xmlns="http://www.w3.org/2000/svg">
<g id="Group 106664">
<path id="Vector" d="M14.6353 7.57443C13.9468 4.4788 12.9745 3.71509 12.3833 3.40929C11.4361 2.91844 10.3368 3.20385 9.973 3.3889C9.559 3.59747 9.27986 3.9958 8.85958 4.1683C8.37344 4.36746 7.71166 4.42078 7.21454 4.18084C6.81778 3.98952 6.46807 3.58022 5.9882 3.39831C5.37974 3.16778 4.36511 2.8463 3.36303 3.55043C3.12466 3.71822 1.43257 5.10765 0.926044 9.45157C0.612403 12.1301 2.11004 12.991 2.05515 12.9518C2.44093 13.2231 3.30344 13.6794 4.47332 12.9628C5.25428 12.4845 5.8894 11.5373 5.8894 11.5373C5.8894 11.5373 6.17168 11.0104 6.54805 10.7877C6.81308 10.6293 7.2114 10.75 7.2114 10.75H8.61808C8.61808 10.75 9.06501 10.6952 9.37709 10.83C9.68132 10.9602 9.85382 11.2817 9.85382 11.2817C9.85382 11.2817 10.7806 12.4562 11.6682 13.0537C12.0462 13.3078 13.5658 13.601 14.3514 12.6617C14.8611 12.0485 15.2108 10.1588 14.6353 7.57443ZM7.12358 7.3C7.12358 7.53523 6.93226 7.72498 6.69703 7.72498H5.63222V8.79136C5.63222 9.02659 5.4409 9.21791 5.20567 9.21791H4.88575C4.65052 9.21791 4.4592 9.02816 4.4592 8.79136V7.72498H3.39439C3.15916 7.72498 2.96784 7.53523 2.96784 7.3V6.98008C2.96784 6.74485 3.15916 6.55353 3.39439 6.55353H4.4592V5.48872C4.4592 5.25349 4.65052 5.06217 4.88575 5.06217H5.20567C5.4409 5.06217 5.63222 5.25349 5.63222 5.48872V6.55353H6.69703C6.93226 6.55353 7.12358 6.74329 7.12358 6.98008V7.3ZM10.1251 8.79136C9.68445 8.79136 9.3269 8.43381 9.3269 7.99158C9.3269 7.55091 9.68445 7.19336 10.1251 7.19336C10.5658 7.19336 10.9233 7.55091 10.9233 7.99158C10.9233 8.43381 10.5658 8.79136 10.1251 8.79136ZM11.5898 7.01615C11.1539 7.01615 10.7994 6.66174 10.7994 6.22578C10.7994 5.78982 11.1539 5.43697 11.5898 5.43697C12.0258 5.43697 12.3802 5.79139 12.3802 6.22578C12.3786 6.66174 12.0258 7.01615 11.5898 7.01615Z" fill="white"/>
</g>
</svg>
