<svg width="22" height="23" viewBox="0 0 22 23" fill="none" xmlns="http://www.w3.org/2000/svg">
<g id="Group 18">
<path id="Union" fill-rule="evenodd" clip-rule="evenodd" d="M2.5 4.08594C2.5 3.8098 2.72386 3.58594 3 3.58594H19C19.2761 3.58594 19.5 3.8098 19.5 4.08594C19.5 4.36208 19.2761 4.58594 19 4.58594H3C2.72386 4.58594 2.5 4.36208 2.5 4.08594ZM2.5 11.0937C2.5 10.8176 2.72386 10.5937 3 10.5937H19C19.2761 10.5937 19.5 10.8176 19.5 11.0937C19.5 11.3699 19.2761 11.5937 19 11.5937H3C2.72386 11.5937 2.5 11.3699 2.5 11.0937ZM3 17.5937C2.72386 17.5937 2.5 17.8176 2.5 18.0937C2.5 18.3699 2.72386 18.5937 3 18.5937H19C19.2761 18.5937 19.5 18.3699 19.5 18.0937C19.5 17.8176 19.2761 17.5937 19 17.5937H3Z" fill="currentColor"/>
</g>
</svg>
