<svg width="16" height="16" viewBox="0 0 16 16" fill="none" xmlns="http://www.w3.org/2000/svg">
<g id="&#232;&#191;&#145;&#230;&#156;&#159;&#231;&#131;&#173;&#233;&#151;&#168;">
<g id="Group 6000">
<path id="Vector" fill-rule="evenodd" clip-rule="evenodd" d="M5.62243 11.0119L5.33123 14.8985C5.31076 15.1717 5.55356 15.3598 5.77073 15.238C7.30833 14.3768 12.1248 11.2133 14.5659 4.26068C14.6779 3.94175 14.3771 3.65395 14.1202 3.83385C12.6783 4.84368 9.5269 6.93092 7.5794 7.32848C7.5794 7.32848 8.82657 6.46225 9.57307 5.13248C9.64623 5.00212 9.64017 4.83525 9.55857 4.71758L6.83627 0.793789C6.67493 0.561192 6.34383 0.657562 6.28556 0.954045L5.43807 5.26645L1.46015 8.73825C1.2607 8.91225 1.30139 9.26392 1.53166 9.35705L5.62243 11.0119Z" fill="currentColor"/>
<path id="Vector_2" fill-rule="evenodd" clip-rule="evenodd" d="M12.6598 9.48164C12.4079 9.83314 11.8652 10.5562 11.3642 10.9981C11.264 11.0864 11.2775 11.2346 11.3924 11.3068L14.0398 12.9687C14.1992 13.0687 14.4144 12.9499 14.3875 12.7764C14.2644 11.9822 13.9095 10.3263 13.0126 9.45704C12.9124 9.36001 12.7397 9.37021 12.6598 9.48164Z" fill="currentColor"/>
</g>
</g>
</svg>
