<svg width="16" height="16" viewBox="0 0 16 16" fill="none" xmlns="http://www.w3.org/2000/svg">
<g id="ios">
<g id="Group">
<path id="Vector" d="M15.0534 4.82575C15.0848 4.1476 14.9904 3.4695 14.7748 2.82574C14.6038 2.42003 14.3452 2.05716 14.0175 1.76314C13.6898 1.46911 13.3011 1.25121 12.8793 1.12504C12.322 0.98614 11.7479 0.925948 11.1739 0.946215H4.82661C4.2529 0.92611 3.67919 0.9863 3.12214 1.12504C2.70015 1.25109 2.31128 1.46893 1.98341 1.76297C1.65553 2.057 1.39677 2.41993 1.22567 2.82574C1.01077 3.46964 0.916328 4.14763 0.947081 4.82575V11.1749C0.917142 11.853 1.01156 12.5308 1.22567 13.1749C1.39677 13.5807 1.65553 13.9437 1.98341 14.2377C2.31128 14.5317 2.70015 14.7496 3.12214 14.8756C3.67912 15.0148 4.25285 15.0753 4.82661 15.0554H11.1739C11.7476 15.0755 12.3213 15.0153 12.8784 14.8766C13.3005 14.7504 13.6894 14.5324 14.0173 14.2382C14.3451 13.944 14.6039 13.5809 14.7748 13.1749C14.9885 12.5312 15.0854 11.8535 15.0534 11.1749V4.82575ZM3.7452 10.6469H3.22096V7.5128H3.7452V10.6469ZM3.48167 6.98386C3.3953 6.98299 3.31282 6.94784 3.25237 6.88615C3.19191 6.82446 3.15844 6.74129 3.15932 6.65492C3.16019 6.56855 3.19534 6.48607 3.25703 6.42562C3.31871 6.36517 3.40189 6.33169 3.48826 6.33257C3.57462 6.33332 3.65716 6.36834 3.7177 6.42994C3.77824 6.49154 3.81183 6.57467 3.81108 6.66104C3.81033 6.74741 3.7753 6.82994 3.7137 6.89048C3.6521 6.95102 3.56898 6.98461 3.48261 6.98386H3.48167ZM6.63273 10.726C5.2492 10.726 4.37673 9.7368 4.37673 8.16316C4.37673 6.59045 5.24732 5.59751 6.63273 5.59751C8.01814 5.59751 8.89155 6.59045 8.89155 8.16316C8.89155 9.7368 8.0219 10.726 6.63273 10.726ZM11.2021 10.726C10.1631 10.726 9.43273 10.1519 9.38002 9.29539H9.85249C9.90426 9.89304 10.4643 10.2977 11.2445 10.2977C11.989 10.2977 12.5226 9.89116 12.5226 9.33398C12.5226 8.86904 12.2026 8.59327 11.4647 8.40786L10.8483 8.24786C9.92779 8.01351 9.51932 7.6248 9.51932 6.96974C9.51932 6.16598 10.2412 5.59469 11.2191 5.59469C12.1885 5.59469 12.8944 6.1688 12.9245 6.95563H12.452C12.4078 6.39469 11.9108 6.02104 11.205 6.02104C10.5179 6.02104 10.0068 6.4041 10.0068 6.95092C10.0068 7.37727 10.3156 7.62951 11.0459 7.81492L11.5843 7.95422C12.5828 8.20551 13.0036 8.58857 13.0036 9.28033C13.0045 10.1537 12.3014 10.726 11.2021 10.726V10.726ZM6.63273 6.03327C5.54473 6.03327 4.85955 6.8568 4.85955 8.16222C4.85955 9.46857 5.54473 10.2874 6.63273 10.2874C7.72073 10.2874 8.41061 9.46292 8.41061 8.16222C8.41061 6.86151 7.72261 6.03327 6.63273 6.03327V6.03327Z" fill="currentColor"/>
</g>
</g>
</svg>
