<svg width="16" height="16" viewBox="0 0 16 16" fill="none" xmlns="http://www.w3.org/2000/svg">
<g id="Group 106360">
<path id="&#229;&#189;&#162;&#231;&#138;&#182;" d="M6.04774 3.06667L6.16171 3.20619C4.11346 3.81037 3.16845 4.72882 3.16845 4.72882C3.16845 4.72882 3.41964 4.58829 3.84014 4.39132C5.05736 3.84467 6.02561 3.69418 6.42397 3.65877C6.49147 3.64771 6.54901 3.63553 6.61762 3.63553C7.37997 3.53453 8.1518 3.52709 8.91596 3.6134C10.1206 3.75431 11.2852 4.13347 12.3419 4.72882C12.3419 4.72882 11.4434 3.85685 9.50797 3.25266L9.66732 3.06667L9.72736 3.06733C10.0284 3.07592 11.4165 3.17712 12.8653 4.28619C12.8653 4.28619 14.5052 7.31929 14.5052 11.0606C14.5052 11.0606 13.537 12.7459 11.0218 12.8267C11.0218 12.8267 10.6123 12.3276 10.2704 11.8861C11.762 11.4556 12.3308 10.5029 12.3308 10.5029C11.8638 10.816 11.4201 11.0373 11.0218 11.1889C10.4932 11.4192 9.93944 11.5867 9.37186 11.688C8.39743 11.8714 7.39699 11.8677 6.42397 11.6769C5.77442 11.5486 5.21671 11.3627 4.74974 11.1768C4.48859 11.0717 4.2042 10.9444 3.91981 10.7817L3.8169 10.7231C3.79366 10.712 3.7826 10.6998 3.77153 10.6888C3.56682 10.5726 3.45395 10.4907 3.45395 10.4907C3.45395 10.4907 3.99948 11.4202 5.44577 11.8628C5.10273 12.3044 4.68223 12.8267 4.68223 12.8267C2.52633 12.7565 1.51592 11.5091 1.27123 11.1541L1.22579 11.0852C1.21582 11.0692 1.21094 11.0606 1.21094 11.0606C1.21094 7.31929 2.84976 4.2873 2.84976 4.2873C4.29949 3.17724 5.68687 3.07593 5.98774 3.06733L6.04774 3.06667ZM5.66044 7.61142C4.99539 7.61142 4.46977 8.10938 4.46977 8.71799C4.46977 9.3266 5.00757 9.82456 5.66044 9.82456C6.32549 9.82456 6.85 9.3266 6.85 8.71799C6.86217 8.10938 6.32438 7.61142 5.66044 7.61142ZM9.91851 7.61142C9.25346 7.61142 8.72895 8.10938 8.72895 8.71799C8.72895 9.3266 9.26563 9.82456 9.91851 9.82456C10.5836 9.82456 11.1092 9.3266 11.1092 8.71799C11.1092 8.10938 10.5836 7.61142 9.91851 7.61142Z" fill="currentColor"/>
</g>
</svg>
