<svg width="22" height="22" viewBox="0 0 22 22" fill="none" xmlns="http://www.w3.org/2000/svg">
<g id="Group 5649">
<path id="Vector" d="M11 11C15.4183 11 19 11 19 11C19 11 15.4183 11 11 11C6.58172 11 3 11 3 11C3 11 6.58172 11 11 11Z" stroke="white" stroke-linecap="round" stroke-linejoin="round"/>
<path id="Vector_2" d="M14.3307 10.9984C14.3307 15.6007 12.8384 19.3317 10.9974 19.3317C9.15644 19.3317 7.66406 15.6007 7.66406 10.9984C7.66406 6.396 9.15644 2.66504 10.9974 2.66504C12.8384 2.66504 14.3307 6.396 14.3307 10.9984Z" stroke="white" stroke-linecap="round" stroke-linejoin="round"/>
<path id="Vector_3" d="M10.9974 19.3317C15.5998 19.3317 19.3307 15.6007 19.3307 10.9984C19.3307 6.396 15.5998 2.66504 10.9974 2.66504C6.39502 2.66504 2.66406 6.396 2.66406 10.9984C2.66406 15.6007 6.39502 19.3317 10.9974 19.3317Z" stroke="white" stroke-linejoin="round"/>
</g>
</svg>
