<svg width="20" height="20" viewBox="0 0 26 26" fill="none" xmlns="http://www.w3.org/2000/svg">
<g id="Group 6348">
<path id="Vector" d="M13.3004 0.914062C13.1384 0.914062 12.9713 0.922422 12.7999 0.936005C8.38319 1.28395 9.5545 5.95876 9.48763 7.51668C9.40717 8.65873 9.17416 9.55838 8.38946 10.6733C7.46473 11.7714 6.16699 13.5467 5.55155 15.3972C5.26108 16.2665 5.12315 17.1568 5.25167 17.9979C5.20364 18.0364 5.16414 18.0844 5.13569 18.139C4.86402 18.419 4.66654 18.7669 4.44398 19.0156C4.23605 19.2235 3.93721 19.2946 3.61121 19.4336C3.28416 19.5757 2.92367 19.7146 2.70843 20.1451C2.61439 20.3416 2.56632 20.5558 2.5705 20.7731C2.5705 20.981 2.59872 21.1921 2.62797 21.3332C2.68858 21.7501 2.74918 22.0949 2.66872 22.3467C2.40959 23.0572 2.3772 23.5441 2.55901 23.8983C2.74082 24.2473 3.11802 24.3884 3.54016 24.5263C4.38755 24.7353 5.53588 24.6674 6.43971 25.1522C7.40727 25.6402 8.38946 25.8533 9.17312 25.6433C9.72273 25.5231 10.1867 25.1595 10.4353 24.6559C11.0487 24.6528 11.7205 24.3748 12.7968 24.3069C13.5271 24.2463 14.4414 24.5859 15.4905 24.5148C15.5166 24.6559 15.5563 24.7228 15.6096 24.8638L15.6127 24.867C16.0213 25.6799 16.7757 26.0498 17.5813 25.986C18.3869 25.9233 19.2447 25.426 19.9396 24.6214C20.5989 23.8221 21.6981 23.4888 22.4243 23.0509C22.7879 22.843 23.0816 22.5609 23.1025 22.1597C23.1265 21.7417 22.8945 21.3112 22.3564 20.7209V20.6195L22.3533 20.6164C22.1756 20.4074 22.0921 20.0574 22.0001 19.6488C21.9113 19.2298 21.8099 18.8275 21.486 18.5559H21.4829C21.4212 18.4994 21.3544 18.4859 21.2864 18.4148C21.228 18.374 21.1591 18.3508 21.0879 18.3479C21.5383 17.0126 21.3638 15.6835 20.9072 14.4881C20.3502 13.0148 19.3764 11.7317 18.6345 10.8488C17.8028 9.7987 16.9878 8.80397 17.0035 7.3286C17.0317 5.08001 17.2511 0.920332 13.3004 0.914062ZM13.8531 4.47189H13.8667C14.0893 4.47189 14.2805 4.53667 14.4769 4.67877C14.6765 4.81983 14.8218 5.02568 14.9356 5.2357C15.0454 5.50632 15.1007 5.7153 15.1091 5.99219C15.1091 5.97129 15.1154 5.9504 15.1154 5.93054V6.03921C15.1131 6.0321 15.1117 6.02473 15.1112 6.01727L15.107 5.99219C15.1049 6.24613 15.0516 6.49703 14.9503 6.72988C14.9015 6.86089 14.8257 6.98015 14.7277 7.07992C14.6981 7.0632 14.6674 7.04853 14.6358 7.03603C14.5261 6.98901 14.4278 6.96916 14.338 6.89706C14.2639 6.86746 14.1873 6.84438 14.1091 6.8281C14.1603 6.76645 14.2607 6.68913 14.2993 6.62121C14.3547 6.48747 14.385 6.34536 14.3913 6.20117V6.18132C14.3936 6.03941 14.3721 5.89812 14.3275 5.76336C14.2805 5.6223 14.222 5.55334 14.1363 5.41437C14.0485 5.34541 13.9618 5.27645 13.8573 5.27645H13.8406C13.7434 5.27645 13.6567 5.30779 13.5669 5.41437C13.4676 5.51114 13.394 5.63107 13.3526 5.76336C13.2972 5.89613 13.2653 6.03758 13.2586 6.18132V6.20117C13.2607 6.29416 13.267 6.3882 13.2795 6.48015C13.0778 6.41015 12.8218 6.33909 12.6453 6.26909C12.6348 6.20022 12.6285 6.13078 12.6265 6.06115V6.04026C12.6181 5.76408 12.6716 5.48953 12.7832 5.23674C12.8689 5.00791 13.0256 4.81252 13.2325 4.67982C13.4112 4.54481 13.6291 4.47181 13.8531 4.47189ZM10.7582 4.53354H10.7958C10.9442 4.53354 11.0779 4.58369 11.2127 4.6746C11.3653 4.80939 11.4886 4.97552 11.5722 5.16047C11.6662 5.3684 11.7195 5.57946 11.732 5.8574V5.86158C11.7394 6.0016 11.7383 6.0716 11.7299 6.13952V6.22311C11.6986 6.23043 11.6714 6.24192 11.6432 6.24819C11.4844 6.30566 11.3569 6.38925 11.2326 6.45717C11.2451 6.36417 11.2462 6.27013 11.2357 6.17818V6.16251C11.2232 6.02354 11.195 5.95458 11.15 5.81456C11.1175 5.70807 11.0577 5.61191 10.9766 5.53558C10.9508 5.51216 10.9206 5.49417 10.8878 5.48268C10.8549 5.47119 10.8201 5.46644 10.7854 5.46871H10.7634C10.6892 5.47498 10.6276 5.51155 10.5691 5.60663C10.5024 5.68753 10.4591 5.78506 10.4437 5.88875C10.4153 6.00171 10.4072 6.11881 10.4197 6.23461V6.24923C10.4322 6.39029 10.4583 6.45926 10.5043 6.59822C10.5513 6.73824 10.6057 6.8072 10.6767 6.87825C10.6882 6.88766 10.6986 6.89706 10.7122 6.90333C10.6391 6.96289 10.59 6.97647 10.5283 7.04543C10.4892 7.07997 10.4422 7.10437 10.3915 7.11649C10.2828 6.98569 10.1866 6.84507 10.1041 6.69644C10.0053 6.47687 9.95031 6.24014 9.94215 5.99951C9.92485 5.76364 9.95323 5.52664 10.0257 5.30153C10.0833 5.09622 10.1841 4.90562 10.3214 4.74251C10.4552 4.60354 10.5931 4.53354 10.7582 4.53354ZM12.1907 6.31611C12.5366 6.31611 12.9556 6.38402 13.4603 6.73301C13.7664 6.94199 14.0067 7.01409 14.5605 7.22202H14.5637C14.8301 7.36412 14.9868 7.49996 15.0631 7.63893V7.50205C15.1006 7.57803 15.1215 7.66112 15.1244 7.74579C15.1273 7.83047 15.1121 7.91479 15.0798 7.99314C14.9513 8.3181 14.5407 8.66605 13.9681 8.87398V8.87607C13.6881 9.01713 13.4446 9.22401 13.1583 9.36194C12.8699 9.503 12.5439 9.66705 12.1009 9.64092C11.9417 9.64916 11.7825 9.62536 11.6328 9.57092C11.517 9.50795 11.4047 9.43889 11.2963 9.36403C11.0926 9.22297 10.917 9.01713 10.6569 8.87816V8.87293H10.6516C10.2337 8.61589 10.008 8.33795 9.93484 8.13002C9.86274 7.84999 9.92961 7.63997 10.1365 7.50309C10.3706 7.36203 10.5336 7.21993 10.6412 7.15201C10.7498 7.07469 10.7906 7.04543 10.8251 7.01513H10.8272V7.012C11.0038 6.80093 11.2827 6.52195 11.7038 6.38402C11.8491 6.34641 12.011 6.31611 12.1907 6.31611ZM15.1154 8.55529C15.4905 10.0359 16.3661 12.1863 16.9293 13.2291C17.2281 13.787 17.8227 14.9625 18.0807 16.3888C18.2437 16.3836 18.4245 16.4076 18.6168 16.4556C19.2918 14.7096 18.0463 12.833 17.4789 12.3116C17.248 12.1016 17.2365 11.9616 17.3504 11.9616C17.9658 12.5196 18.7766 13.6042 19.0702 14.8423C19.205 15.4014 19.2364 15.9959 19.0922 16.5873C19.1622 16.6166 19.2333 16.651 19.3064 16.6573C20.3847 17.2153 20.7828 17.6374 20.5916 18.2633V18.2184C20.5279 18.2152 20.4662 18.2184 20.4025 18.2184H20.3868C20.5446 17.7304 20.1966 17.3563 19.274 16.9394C18.3179 16.5215 17.5541 16.5883 17.4235 17.4253C17.4162 17.4702 17.411 17.4943 17.4058 17.5664C17.3347 17.5904 17.2605 17.6217 17.1874 17.6332C16.7381 17.9133 16.4957 18.3323 16.3588 18.8735C16.2229 19.4304 16.1811 20.0814 16.1446 20.8264V20.8295C16.1226 21.1785 15.9659 21.7051 15.8113 22.2412C14.2439 23.3613 12.0706 23.8482 10.2222 22.5902C10.1063 22.3875 9.96511 22.2004 9.80214 22.0332C9.72435 21.9032 9.62749 21.7855 9.51479 21.6842C9.70496 21.6842 9.86797 21.6539 10.0007 21.6142C10.1509 21.5445 10.2685 21.4195 10.3288 21.2652C10.4416 20.9863 10.3288 20.537 9.96827 20.05C9.60779 19.5621 8.99549 19.0104 8.10002 18.4608C7.44175 18.0439 7.06977 17.5517 6.89841 17.0021C6.726 16.4442 6.74899 15.8684 6.88274 15.2833C7.13873 14.1653 7.79492 13.0786 8.21392 12.3963C8.32572 12.3284 8.25258 12.5373 7.7876 13.414C7.37383 14.1987 6.59539 16.0231 7.66013 17.441C7.70033 16.4064 7.92945 15.388 8.33617 14.4359C8.92548 13.1005 10.1574 10.7746 10.2546 8.93145C10.3047 8.96906 10.4813 9.07251 10.5565 9.14251C10.7843 9.28148 10.9536 9.49046 11.173 9.62838C11.3935 9.83841 11.6714 9.97842 12.0883 9.97842C12.1291 9.98156 12.1667 9.98469 12.2043 9.98469C12.6338 9.98469 12.966 9.84468 13.245 9.70466C13.548 9.56465 13.7894 9.35567 14.0182 9.28671H14.0235C14.5114 9.14565 14.897 8.86667 15.1154 8.55529ZM17.3995 17.9153C17.4381 18.5433 17.7579 19.2162 18.3211 19.3542C18.9355 19.4942 19.8194 19.0062 20.1925 18.5548L20.4129 18.5454C20.7421 18.5371 21.0158 18.5559 21.2979 18.8244L21.3011 18.8275C21.5184 19.0355 21.6198 19.3824 21.7096 19.7428C21.7984 20.1618 21.8705 20.5579 22.137 20.8567C22.6448 21.4073 22.8109 21.8034 22.8015 22.0479L22.8047 22.0416V22.0604L22.8015 22.0479C22.7859 22.3216 22.6082 22.4616 22.2812 22.6696C21.6229 23.0886 20.4568 23.4135 19.7139 24.31C19.0682 25.0801 18.2814 25.5002 17.5865 25.5545C16.8927 25.6099 16.294 25.3455 15.9419 24.6162L15.9366 24.613C15.7172 24.194 15.8113 23.542 15.9952 22.8472C16.1791 22.1492 16.4424 21.4418 16.4789 20.864C16.5176 20.118 16.5584 19.4691 16.6827 18.9686C16.8081 18.4827 17.0045 18.1358 17.3525 17.9404L17.3995 17.9174V17.9153ZM6.09907 17.9665H6.10952C6.1649 17.9665 6.21923 17.9718 6.27357 17.9812C6.66644 18.0386 7.01126 18.3291 7.34248 18.7669L8.29333 20.5056L8.29646 20.5087C8.55037 21.0657 9.0843 21.6205 9.53883 22.2203C9.99231 22.8451 10.3434 23.402 10.3005 23.8607V23.867C10.241 24.6444 9.80005 25.0665 9.12505 25.2191C8.4511 25.3601 7.53683 25.2212 6.62256 24.7343C5.61111 24.1742 4.4095 24.2442 3.63733 24.1052C3.25177 24.0363 2.99891 23.8952 2.88188 23.6862C2.7659 23.4783 2.76381 23.0583 3.0104 22.401V22.3979L3.01249 22.3948C3.13474 22.0458 3.04384 21.608 2.98428 21.2255C2.92681 20.8065 2.89755 20.4847 3.02921 20.2433C3.19639 19.8944 3.44298 19.8264 3.74913 19.6864C4.05737 19.5454 4.4189 19.4754 4.70624 19.1964H4.70833V19.1932C4.97582 18.9132 5.17331 18.5653 5.40632 18.3176C5.60484 18.1076 5.80337 17.9665 6.09907 17.9665ZM13.5794 8.48528C13.1249 8.6953 12.592 9.0443 12.0246 9.0443C11.4583 9.0443 11.0111 8.76531 10.6882 8.55738C10.5262 8.41737 10.3956 8.27735 10.2974 8.20734C10.1261 8.06733 10.1469 7.85835 10.2201 7.85835C10.334 7.87507 10.3549 7.99941 10.428 8.06837C10.5283 8.13734 10.6527 8.27631 10.8052 8.41632C11.1093 8.6253 11.5157 8.90428 12.0236 8.90428C12.5303 8.90428 13.1238 8.6253 13.4843 8.41737C13.6881 8.27631 13.9493 8.06837 14.1614 7.92941C14.3244 7.78626 14.3171 7.64938 14.4529 7.64938C14.5877 7.66609 14.4884 7.78939 14.2993 7.99732C14.0675 8.1726 13.8269 8.33581 13.5783 8.48633V8.48528H13.5794ZM12.4488 6.83019V6.8072C12.4426 6.78735 12.4624 6.76332 12.4791 6.75496C12.5564 6.71003 12.6672 6.72675 12.7508 6.75914C12.8166 6.75914 12.918 6.82914 12.9075 6.9002C12.9013 6.95139 12.8187 6.96916 12.7665 6.96916C12.709 6.96916 12.6703 6.92423 12.6191 6.89811C12.5648 6.8793 12.4666 6.88975 12.4488 6.83019ZM11.8731 6.83019C11.8522 6.89079 11.755 6.88139 11.6996 6.89915C11.6505 6.92527 11.6098 6.9702 11.5544 6.9702C11.5011 6.9702 11.4175 6.95035 11.4113 6.89915C11.4019 6.83019 11.5032 6.76018 11.568 6.76018C11.6526 6.72779 11.7602 6.71107 11.8386 6.75496C11.8585 6.76436 11.8762 6.7863 11.87 6.8072V6.82914H11.8731V6.83019Z" fill="currentColor"/>
</g>
</svg>
