<svg width="16" height="16" viewBox="0 0 16 16" fill="none" xmlns="http://www.w3.org/2000/svg">
<g id="macos">
<g id="Group">
<path id="Vector" d="M13.809 10.0317C13.7856 9.99494 13.7544 9.96375 13.7176 9.94036C13.6808 9.91697 13.6393 9.90194 13.596 9.89635C13.0939 9.82691 12.6335 9.57885 12.2994 9.19761C11.9652 8.81638 11.7796 8.32749 11.7766 7.82055C11.7766 6.909 12.3659 6.10666 13.2441 5.82597C13.288 5.81217 13.3282 5.78842 13.3615 5.75657C13.3948 5.72471 13.4202 5.68562 13.436 5.64231C13.4517 5.599 13.4572 5.55266 13.4521 5.50687C13.447 5.46109 13.4314 5.4171 13.4065 5.37832C12.6664 4.21677 11.5726 3.60938 10.874 3.60938C10.3036 3.60938 9.76934 3.78898 9.29822 3.94692C8.89389 4.0823 8.51122 4.21136 8.16646 4.21136C7.82079 4.21136 7.43903 4.0832 7.0347 3.94692C6.56358 3.78988 6.02929 3.60938 5.45799 3.60938C4.33435 3.60938 2.14844 5.20233 2.14844 8.12199C2.14844 10.8972 4.1728 14.4396 5.75853 14.4396C6.60239 14.4396 7.10058 14.2167 7.5013 14.038C7.7513 13.9261 7.94805 13.8377 8.16556 13.8377C8.38216 13.8377 8.57891 13.9261 8.82891 14.038C9.22963 14.2167 9.72873 14.4396 10.5717 14.4396C11.8298 14.4396 13.2486 12.2808 13.8433 10.2799C13.8553 10.2384 13.8583 10.1947 13.8521 10.1519C13.8458 10.1091 13.8305 10.0682 13.8072 10.0317H13.809Z" fill="currentColor"/>
<path id="Vector_2" d="M7.86695 3.61009C8.74447 3.60937 9.58585 3.26046 10.2064 2.63995C10.8269 2.01945 11.1758 1.17807 11.1765 0.30054C11.1763 0.220905 11.1445 0.1446 11.0882 0.0882891C11.0319 0.0319784 10.9556 0.000238073 10.876 0C9.99843 0.000717032 9.15705 0.349631 8.53654 0.970137C7.91604 1.59064 7.56712 2.43202 7.56641 3.30955C7.56641 3.47562 7.70178 3.61009 7.86695 3.61009Z" fill="currentColor"/>
</g>
</g>
</svg>
