<svg width="26" height="26" viewBox="0 0 26 26" fill="none" xmlns="http://www.w3.org/2000/svg">
<g id="Group 6713">
<path id="Vector" d="M23.0002 6.99503C23.0002 4.78589 21.2093 3 19.0002 3H7.00003C4.79088 3 3.00002 4.79088 3.00003 7.00003L3.00014 19C3.00016 21.2092 4.79061 23 6.99973 23C10.5255 23 15.5347 23 19.0051 23C21.2143 23 23.0002 21.2095 23.0002 19.0004C23.0002 15.4746 23.0002 10.4655 23.0002 6.99503Z" stroke="currentColor" stroke-width="1.7" stroke-linecap="round" stroke-linejoin="round"/>
<path id="Vector_2" d="M7.19922 10.5332H10.4492" stroke="currentColor" stroke-width="1.73333" stroke-linecap="round"/>
<path id="Vector_3" d="M7.19922 14.8665H8.28255" stroke="currentColor" stroke-width="1.73333" stroke-linecap="round"/>
<g id="Group 6860">
<path id="Vector_4" d="M15.1914 9.44983L18.9831 17.0332" stroke="currentColor" stroke-width="1.73333" stroke-linecap="round"/>
<path id="Vector_5" d="M15.1901 9.44983L11.3984 17.0332" stroke="currentColor" stroke-width="1.73333" stroke-linecap="round"/>
<path id="Vector_6" d="M12.4844 14.8665H17.901" stroke="currentColor" stroke-width="1.73333" stroke-linecap="round"/>
</g>
</g>
</svg>
