<svg width="24" height="24" viewBox="0 0 24 24" fill="none" xmlns="http://www.w3.org/2000/svg">
<g id="medium">
<g id="Group 3501">
<path id="Vector" d="M7.07761 18.3505C10.6003 18.3505 13.456 15.4948 13.456 11.9721C13.456 8.44945 10.6003 5.59375 7.07761 5.59375C3.55492 5.59375 0.699219 8.44945 0.699219 11.9721C0.699219 15.4948 3.55492 18.3505 7.07761 18.3505Z" fill="currentColor"/>
<path id="Vector_2" d="M17.3814 18.3505C19.0072 18.3505 20.3252 15.4948 20.3252 11.9721C20.3252 8.44945 19.0072 5.59375 17.3814 5.59375C15.7555 5.59375 14.4375 8.44945 14.4375 11.9721C14.4375 15.4948 15.7555 18.3505 17.3814 18.3505Z" fill="currentColor"/>
<path id="Vector_3" d="M22.286 17.3684C22.8279 17.3684 23.2673 14.9521 23.2673 11.9713C23.2673 8.99058 22.8279 6.57422 22.286 6.57422C21.744 6.57422 21.3047 8.99058 21.3047 11.9713C21.3047 14.9521 21.744 17.3684 22.286 17.3684Z" fill="currentColor"/>
</g>
</g>
</svg>
