<svg width="22" height="23" viewBox="0 0 22 23" fill="none" xmlns="http://www.w3.org/2000/svg">
<g id="Group 18">
<path id="Union" fill-rule="evenodd" clip-rule="evenodd" d="M2.50024 4.08594C2.50024 3.8098 2.7241 3.58594 3.00024 3.58594H19.0002C19.2764 3.58594 19.5002 3.8098 19.5002 4.08594C19.5002 4.36208 19.2764 4.58594 19.0002 4.58594H3.00024C2.7241 4.58594 2.50024 4.36208 2.50024 4.08594ZM2.50024 11.0937C2.50024 10.8176 2.7241 10.5937 3.00024 10.5937H19.0002C19.2764 10.5937 19.5002 10.8176 19.5002 11.0937C19.5002 11.3699 19.2764 11.5937 19.0002 11.5937H3.00024C2.7241 11.5937 2.50024 11.3699 2.50024 11.0937ZM3.00024 17.5937C2.7241 17.5937 2.50024 17.8176 2.50024 18.0937C2.50024 18.3699 2.7241 18.5937 3.00024 18.5937H19.0002C19.2764 18.5937 19.5002 18.3699 19.5002 18.0937C19.5002 17.8176 19.2764 17.5937 19.0002 17.5937H3.00024Z" fill="currentColor"/>
</g>
</svg>
