<svg width="16" height="16" viewBox="0 0 16 16" fill="none" xmlns="http://www.w3.org/2000/svg">
<g id="&#233;&#161;&#185;&#231;&#155;&#174;&#230;&#150;&#185;/&#232;&#174;&#164;&#232;&#175;&#129;">
<path id="Star 12" d="M6.95523 0.900753C7.55558 0.383156 8.44442 0.383156 9.04477 0.900752L9.75678 1.51462C10.0528 1.76987 10.4321 1.9079 10.8229 1.90268L11.763 1.8901C12.5556 1.87949 13.2365 2.45082 13.3636 3.23322L13.5145 4.16115C13.5772 4.54698 13.779 4.8965 14.0818 5.14374L14.81 5.73834C15.424 6.23969 15.5783 7.11501 15.1728 7.79612L14.6919 8.60392C14.492 8.9398 14.4219 9.33726 14.4949 9.72127L14.6705 10.6448C14.8186 11.4235 14.3742 12.1933 13.6257 12.4544L12.7381 12.7641C12.369 12.8929 12.0599 13.1523 11.869 13.4934L11.4098 14.3138C11.0227 15.0055 10.1875 15.3095 9.44633 15.0284L8.5673 14.6951C8.2018 14.5565 7.7982 14.5565 7.4327 14.6951L6.55367 15.0284C5.8125 15.3095 4.97727 15.0055 4.59016 14.3138L4.13104 13.4934C3.94014 13.1523 3.63096 12.8929 3.26189 12.7641L2.37425 12.4544C1.62583 12.1933 1.18141 11.4235 1.32949 10.6448L1.50511 9.72127C1.57813 9.33726 1.50805 8.9398 1.30809 8.60392L0.827185 7.79612C0.421701 7.11501 0.576045 6.23969 1.19003 5.73834L1.91821 5.14374C2.22099 4.8965 2.42279 4.54698 2.48551 4.16115L2.63635 3.23322C2.76354 2.45082 3.44443 1.87949 4.23703 1.8901L5.17705 1.90268C5.56791 1.9079 5.94716 1.76987 6.24322 1.51462L6.95523 0.900753Z" fill="white"/>
<g id="Group 5841">
<path id="Union" fill-rule="evenodd" clip-rule="evenodd" d="M7.76805 10.3671C7.76175 10.3741 7.75524 10.3809 7.7485 10.3877C7.54018 10.5959 7.20249 10.5958 6.99425 10.3875L5.08972 8.4822C4.88149 8.27388 4.88156 7.93619 5.08988 7.72795C5.29821 7.51972 5.63589 7.51979 5.84413 7.72811L7.37101 9.25563L10.8038 5.82281C11.0121 5.61453 11.3498 5.61453 11.5581 5.82281C11.7664 6.03108 11.7664 6.36877 11.5581 6.57705L7.76805 10.3671Z" fill="#2F323A"/>
</g>
</g>
</svg>
