<svg width="28" height="28" viewBox="0 0 28 28" fill="none" xmlns="http://www.w3.org/2000/svg">
<g id="Group 6562">
<path id="Vector" d="M14.0213 17.5007C17.8931 17.5007 21.0319 14.2745 21.0319 10.2948V2.33398H7.01074V10.2948C7.01074 14.2745 10.1495 17.5007 14.0213 17.5007Z" fill="#F4BC2C" stroke="#F4BC2C" stroke-width="0.875659" stroke-linejoin="round"/>
<path id="Vector_2" fill-rule="evenodd" clip-rule="evenodd" d="M7.00915 12.2498V6.4165H2.33545C2.33545 10.3054 4.6723 12.2498 7.00915 12.2498Z" stroke="#F4BC2C" stroke-width="1.75132" stroke-linecap="round" stroke-linejoin="round"/>
<path id="Vector_3" fill-rule="evenodd" clip-rule="evenodd" d="M21.0317 12.2493V6.41602H25.7054C25.7054 10.3049 23.3686 12.2493 21.0317 12.2493Z" stroke="#F4BC2C" stroke-width="1.75132" stroke-linecap="round" stroke-linejoin="round"/>
<path id="Vector_4" d="M14.022 17.5V21" stroke="#F4BC2C" stroke-width="1.16755" stroke-linecap="round" stroke-linejoin="round"/>
<path id="Vector_5" d="M8.76367 24.5L10.9194 21H16.9675L19.2795 24.5H8.76367Z" fill="#F4BC2C" stroke="#F4BC2C" stroke-width="1.16755" stroke-linejoin="round"/>
<path id="Star 11" d="M13.6884 4.52355C13.7933 4.20104 14.2496 4.20104 14.3545 4.52355L15.32 7.49039C15.3669 7.63463 15.5013 7.73227 15.653 7.73227L18.7761 7.73227C19.1156 7.73227 19.2566 8.16673 18.9818 8.36605L16.4561 10.1983C16.3331 10.2875 16.2817 10.4458 16.3287 10.5902L17.2936 13.5556C17.3986 13.8782 17.0295 14.1467 16.7549 13.9475L14.2271 12.1138C14.1044 12.0248 13.9384 12.0248 13.8158 12.1138L11.288 13.9475C11.0134 14.1467 10.6443 13.8782 10.7492 13.5556L11.7142 10.5902C11.7612 10.4458 11.7098 10.2875 11.5868 10.1983L9.06108 8.36605C8.78632 8.16673 8.92732 7.73227 9.26675 7.73227L12.3899 7.73227C12.5415 7.73227 12.676 7.63463 12.7229 7.49039L13.6884 4.52355Z" fill="#23252B"/>
</g>
</svg>
