<svg width="20" height="20" viewBox="0 0 20 20" fill="none" xmlns="http://www.w3.org/2000/svg">
<path d="M16.4466 11.5017L11.5086 16.4397C11.2503 16.6984 10.8997 16.8437 10.5341 16.8437C10.1685 16.8437 9.81795 16.6984 9.55957 16.4397L3.6693 10.556C3.47962 10.3666 3.37305 10.1095 3.37305 9.84137V4.38315C3.37305 3.82528 3.82528 3.37305 4.38315 3.37305H9.8417C10.1096 3.37305 10.3665 3.47947 10.556 3.6689L16.4466 9.55957C16.9807 10.0968 16.9807 10.9645 16.4466 11.5017Z" stroke="currentColor" stroke-width="1.3" stroke-linejoin="round"/>
<path d="M8.39062 9.44862C8.97412 9.44862 9.44715 8.97559 9.44715 8.39208C9.44715 7.80858 8.97412 7.33555 8.39062 7.33555C7.80711 7.33555 7.33408 7.80858 7.33408 8.39208C7.33408 8.97559 7.80711 9.44862 8.39062 9.44862Z" fill="currentColor" stroke="currentColor" stroke-width="0.2"/>
</svg>
