<svg width="16" height="16" viewBox="0 0 16 16" fill="none" xmlns="http://www.w3.org/2000/svg">
<g id="&#230;&#156;&#137;&#229;&#186;&#143;&#229;&#136;&#151;&#232;&#161;&#168;">
<path id="Vector" d="M3 1.3335V4.3335" stroke="currentColor" stroke-linecap="round" stroke-linejoin="round"/>
<path id="Vector_2" d="M4 4.3335H2" stroke="currentColor" stroke-linecap="round" stroke-linejoin="round"/>
<path id="Vector_3" d="M4 9H2" stroke="currentColor" stroke-linecap="round" stroke-linejoin="round"/>
<path id="Vector_4" d="M2 6.66661C2 6.66661 3 5.66661 3.66667 6.66661C4.33333 7.66665 2 8.99995 2 8.99995" stroke="currentColor" stroke-linecap="round" stroke-linejoin="round"/>
<path id="Vector_5" d="M2 11.5C2 11.5 2.66667 10.5 3.66668 11.1667C4.66668 11.8333 3.66668 12.6667 3.66668 12.6667C3.66668 12.6667 4.66668 13.5 3.66668 14.1667C2.66667 14.8333 2 13.8333 2 13.8333" stroke="currentColor" stroke-linecap="round" stroke-linejoin="round"/>
<path id="Vector_6" d="M3.66667 12.6665H3" stroke="currentColor" stroke-linecap="round" stroke-linejoin="round"/>
<path id="Vector_7" d="M3 1.3335L2 2.00016" stroke="currentColor" stroke-linecap="round" stroke-linejoin="round"/>
<path id="Vector_8" d="M7 8H14.3333" stroke="currentColor" stroke-width="1.33333" stroke-linecap="round" stroke-linejoin="round"/>
<path id="Vector_9" d="M7 12.6665H14.3333" stroke="currentColor" stroke-width="1.33333" stroke-linecap="round" stroke-linejoin="round"/>
<path id="Vector_10" d="M7 3.3335H14.3333" stroke="currentColor" stroke-width="1.33333" stroke-linecap="round" stroke-linejoin="round"/>
</g>
</svg>
