<svg width="16" height="16" viewBox="0 0 16 16" fill="none" xmlns="http://www.w3.org/2000/svg">
<g id="&#229;&#155;&#190;&#231;&#137;&#135;">
<path id="Vector" d="M13 2H3C2.44772 2 2 2.44772 2 3V13C2 13.5523 2.44772 14 3 14H13C13.5523 14 14 13.5523 14 13V3C14 2.44772 13.5523 2 13 2Z" stroke="currentColor" stroke-width="1.33333" stroke-linecap="round" stroke-linejoin="round"/>
<path id="Vector_2" d="M6.00065 7.66683C6.92112 7.66683 7.66732 6.92063 7.66732 6.00016C7.66732 5.0797 6.92112 4.3335 6.00065 4.3335C5.08018 4.3335 4.33398 5.0797 4.33398 6.00016C4.33398 6.92063 5.08018 7.66683 6.00065 7.66683Z" stroke="currentColor" stroke-width="1.33333" stroke-linecap="round" stroke-linejoin="round"/>
<path id="Vector_3" d="M14 11.9998L10.3333 8.6665L7 11.6665L4.66667 9.6665L2 11.6665" stroke="currentColor" stroke-width="1.33333" stroke-linecap="round" stroke-linejoin="round"/>
</g>
</svg>
