<svg width="16" height="16" viewBox="0 0 16 16" fill="none" xmlns="http://www.w3.org/2000/svg">
<g id="&#231;&#172;&#166;&#229;&#143;&#183;&#229;&#136;&#151;&#232;&#161;&#168;">
<path id="Vector" d="M2.99935 14.0002C3.73572 14.0002 4.33268 13.4032 4.33268 12.6668C4.33268 11.9305 3.73572 11.3335 2.99935 11.3335C2.26297 11.3335 1.66602 11.9305 1.66602 12.6668C1.66602 13.4032 2.26297 14.0002 2.99935 14.0002Z" stroke="currentColor" stroke-linejoin="round"/>
<path id="Vector_2" d="M2.99935 4.66667C3.73572 4.66667 4.33268 4.06973 4.33268 3.33333C4.33268 2.59695 3.73572 2 2.99935 2C2.26297 2 1.66602 2.59695 1.66602 3.33333C1.66602 4.06973 2.26297 4.66667 2.99935 4.66667Z" stroke="currentColor" stroke-linejoin="round"/>
<path id="Vector_3" d="M2.99935 9.33317C3.73572 9.33317 4.33268 8.73624 4.33268 7.99984C4.33268 7.26344 3.73572 6.6665 2.99935 6.6665C2.26297 6.6665 1.66602 7.26344 1.66602 7.99984C1.66602 8.73624 2.26297 9.33317 2.99935 9.33317Z" stroke="currentColor" stroke-linejoin="round"/>
<path id="Vector_4" d="M7 8H14.3333" stroke="currentColor" stroke-width="1.33333" stroke-linecap="round" stroke-linejoin="round"/>
<path id="Vector_5" d="M7 12.6665H14.3333" stroke="currentColor" stroke-width="1.33333" stroke-linecap="round" stroke-linejoin="round"/>
<path id="Vector_6" d="M7 3.3335H14.3333" stroke="currentColor" stroke-width="1.33333" stroke-linecap="round" stroke-linejoin="round"/>
</g>
</svg>
