<svg width="26" height="26" viewBox="0 0 26 26" fill="none" xmlns="http://www.w3.org/2000/svg">
<g id="Group 6885">
<g id="&#232;&#183;&#175;&#229;&#190;&#132;">
<path id="Vector" d="M17.1447 22.8606C18.2487 22.8606 19.2702 22.2763 19.83 21.3247L23.8386 14.5098C24.4121 13.5349 24.4121 12.3257 23.8386 11.3508L19.83 4.53586C19.2702 3.58428 18.2487 3 17.1447 3H9.02562C7.92165 3 6.90012 3.58425 6.34038 4.5358L2.33153 11.3507C1.75801 12.3257 1.75801 13.5349 2.33153 14.5099L6.34038 21.3248C6.90012 22.2763 7.92165 22.8606 9.02562 22.8606H17.1447Z" stroke="currentColor" stroke-width="1.7" stroke-linejoin="round"/>
<path id="Vector_2" d="M13.0847 15.8511C14.6978 15.8511 16.0054 14.5435 16.0054 12.9304C16.0054 11.3174 14.6978 10.0098 13.0847 10.0098C11.4717 10.0098 10.1641 11.3174 10.1641 12.9304C10.1641 14.5435 11.4717 15.8511 13.0847 15.8511Z" stroke="currentColor" stroke-width="1.7" stroke-linejoin="round"/>
</g>
</g>
</svg>
