<svg width="22" height="22" viewBox="0 0 22 22" fill="none" xmlns="http://www.w3.org/2000/svg">
<g id="Group 6345">
<path id="Vector" fill-rule="evenodd" clip-rule="evenodd" d="M10.9988 19.3329C15.6012 19.3329 19.3321 15.602 19.3321 10.9996C19.3321 6.39722 15.6012 2.66626 10.9988 2.66626C6.39642 2.66626 2.66547 6.39722 2.66547 10.9996C2.66547 15.602 6.39642 19.3329 10.9988 19.3329Z" stroke="currentColor" stroke-linecap="round" stroke-linejoin="round"/>
<path id="Vector_2" d="M10.9988 10.5829C12.1494 10.5829 13.0821 9.65018 13.0821 8.49959C13.0821 7.34901 12.1494 6.41626 10.9988 6.41626C9.84822 6.41626 8.91547 7.34901 8.91547 8.49959C8.91547 9.65018 9.84822 10.5829 10.9988 10.5829Z" stroke="currentColor" stroke-linejoin="round"/>
<path id="Vector_3" d="M5.17615 16.9721C5.31936 14.8007 7.12598 13.0837 9.33365 13.0837H12.667C14.8717 13.0837 16.6765 14.7961 16.8239 16.9634" stroke="currentColor" stroke-linecap="round" stroke-linejoin="round"/>
</g>
</svg>
