<svg width="22" height="22" viewBox="0 0 22 22" fill="none" xmlns="http://www.w3.org/2000/svg">
<g id="Group 6750">
<path id="Vector" d="M5.35293 9.29102C3.33492 9.77094 1.83398 11.5852 1.83398 13.7501C1.83398 16.2814 3.88601 18.3335 6.41732 18.3335C6.85154 18.3335 7.27165 18.2731 7.66971 18.1603" stroke="white" stroke-width="1.5" stroke-linecap="round" stroke-linejoin="round"/>
<path id="Vector_2" d="M16.5258 9.29102C18.5438 9.77094 20.0447 11.5852 20.0447 13.7501C20.0447 16.2814 17.9927 18.3335 15.4614 18.3335C15.0272 18.3335 14.607 18.2731 14.209 18.1603" stroke="white" stroke-width="1.5" stroke-linecap="round" stroke-linejoin="round"/>
<path id="Vector_3" d="M16.5 9.1665C16.5 6.12895 14.0376 3.6665 11 3.6665C7.96244 3.6665 5.5 6.12895 5.5 9.1665" stroke="white" stroke-width="1.5" stroke-linecap="round" stroke-linejoin="round"/>
<path id="Vector_4" d="M7.82227 12.7787L11.0006 9.58984L14.2694 12.8332" stroke="white" stroke-width="1.5" stroke-linecap="round" stroke-linejoin="round"/>
<path id="Vector_5" d="M11 17.4169V11.2119" stroke="white" stroke-width="1.5" stroke-linecap="round" stroke-linejoin="round"/>
</g>
</svg>
