<svg width="22" height="22" viewBox="0 0 22 22" fill="none" xmlns="http://www.w3.org/2000/svg">
<g id="Group 106507">
<g id="&#232;&#183;&#175;&#229;&#190;&#132;">
<path id="Subtract" d="M17.9711 13.0354L18.4511 13.1753C18.5041 12.9935 18.4498 12.7973 18.3109 12.6686C18.172 12.5399 17.9722 12.5008 17.795 12.5675L17.9711 13.0354ZM11.0007 3.74023L11.4005 4.04061C11.5143 3.88915 11.5327 3.68636 11.4481 3.51685C11.3634 3.34735 11.1902 3.24025 11.0008 3.24023L11.0007 3.74023ZM15.8404 13.9213C16.6514 13.9213 17.4291 13.7737 18.1472 13.5034L17.795 12.5675C17.1877 12.796 16.5292 12.9213 15.8404 12.9213V13.9213ZM9.29038 7.37129C9.29038 10.9887 12.2229 13.9213 15.8404 13.9213V12.9213C12.7752 12.9213 10.2904 10.4365 10.2904 7.37129H9.29038ZM10.601 3.43986C9.77819 4.53482 9.29038 5.89681 9.29038 7.37129H10.2904C10.2904 6.12086 10.7033 4.96832 11.4005 4.04061L10.601 3.43986ZM11.0008 3.24023L11.0002 3.24023V4.24023L11.0007 4.24023L11.0008 3.24023ZM11.0002 3.24023C6.71451 3.24023 3.24023 6.71451 3.24023 11.0002H4.24023C4.24023 7.2668 7.2668 4.24023 11.0002 4.24023V3.24023ZM3.24023 11.0002C3.24023 15.286 6.71451 18.7602 11.0002 18.7602V17.7602C7.2668 17.7602 4.24023 14.7337 4.24023 11.0002H3.24023ZM11.0002 18.7602C14.5315 18.7602 17.5107 16.4019 18.4511 13.1753L17.4911 12.8955C16.6717 15.7069 14.0751 17.7602 11.0002 17.7602V18.7602Z" fill="currentColor"/>
</g>
</g>
</svg>
