<svg width="30" height="30" viewBox="0 0 30 30" fill="none" xmlns="http://www.w3.org/2000/svg">
<g id="Group 6694">
<path id="Vector" d="M7.29856 12.6694C4.54673 13.3239 2.5 15.7979 2.5 18.7501C2.5 22.2018 5.29822 25.0001 8.75 25.0001C9.34212 25.0001 9.915 24.9177 10.4578 24.7639" stroke="currentColor" stroke-width="1.5" stroke-linecap="round" stroke-linejoin="round"/>
<path id="Vector_2" d="M22.5342 12.6694C25.2861 13.3239 27.3328 15.7979 27.3328 18.7501C27.3328 22.2018 24.5346 25.0001 21.0828 25.0001C20.4907 25.0001 19.9178 24.9177 19.375 24.7639" stroke="currentColor" stroke-width="1.5" stroke-linecap="round" stroke-linejoin="round"/>
<path id="Vector_3" d="M22.5 12.5C22.5 8.35788 19.1421 5 15 5C10.8579 5 7.5 8.35788 7.5 12.5" stroke="currentColor" stroke-width="1.5" stroke-linecap="round" stroke-linejoin="round"/>
<path id="Vector_4" d="M10.666 17.4255L15.0001 13.0771L19.4575 17.4999" stroke="currentColor" stroke-width="1.5" stroke-linecap="round" stroke-linejoin="round"/>
<path id="Vector_5" d="M15 23.7499V15.2886" stroke="currentColor" stroke-width="1.5" stroke-linecap="round" stroke-linejoin="round"/>
</g>
</svg>
