<svg width="22" height="22" viewBox="0 0 22 22" fill="none" xmlns="http://www.w3.org/2000/svg">
<g id="Group 6450">
<path id="Vector" d="M11 11C15.4183 11 19 11 19 11C19 11 15.4183 11 11 11C6.58172 11 3 11 3 11C3 11 6.58172 11 11 11Z" stroke="currentColor" stroke-linecap="round" stroke-linejoin="round"/>
<path id="Vector_2" d="M14.3346 10.9984C14.3346 15.6007 12.8423 19.3317 11.0013 19.3317C9.16034 19.3317 7.66797 15.6007 7.66797 10.9984C7.66797 6.396 9.16034 2.66504 11.0013 2.66504C12.8423 2.66504 14.3346 6.396 14.3346 10.9984Z" stroke="currentColor" stroke-linecap="round" stroke-linejoin="round"/>
<path id="Vector_3" d="M11.0013 19.3317C15.6037 19.3317 19.3346 15.6007 19.3346 10.9984C19.3346 6.396 15.6037 2.66504 11.0013 2.66504C6.39893 2.66504 2.66797 6.396 2.66797 10.9984C2.66797 15.6007 6.39893 19.3317 11.0013 19.3317Z" stroke="currentColor" stroke-linejoin="round"/>
</g>
</svg>
