<?xml version="1.0" encoding="UTF-8"?>
<svg width="85px" height="20px" viewBox="0 0 85 20" version="1.1" xmlns="http://www.w3.org/2000/svg" xmlns:xlink="http://www.w3.org/1999/xlink">
    <!-- Generator: Sketch 63 (92445) - https://sketch.com -->
    <title>资源 1</title>
    <desc>Created with Sketch.</desc>
    <g id="视频" stroke="none" stroke-width="1" fill="none" fill-rule="evenodd">
        <g id="直播间-输入状态" transform="translate(-1191.000000, -8.000000)" fill-rule="nonzero">
            <g id="资源-1" transform="translate(1191.000000, 8.000000)">
                <polygon id="路径" fill="#FF7F00" points="51.0568411 3.7364246 49.7178937 4.51452985 46.719157 6.25263508 44.9279991 5.21179299 44.9204202 5.20168773 44.9077886 5.20168773 44.9027359 5.21179299 43.119157 6.25010876 43.1166307 7.26821401 44.9153675 6.22231929 46.7141043 7.26821401 52.8075779 3.7364246 51.1528411 3.7364246"></polygon>
                <path d="M59.9797883,8.80674029 L57.7642094,8.80674029 L55.9604199,14.8168454 L55.9604199,14.8597928 L55.7077884,15.6631612 C55.699581,15.6922794 55.6928358,15.7217899 55.6875778,15.7515823 L55.6345252,15.933477 C55.6033918,16.080051 55.6413838,16.2328002 55.7375539,16.3477112 C55.833724,16.4626221 55.9773904,16.5269313 56.1271568,16.5221086 L67.2884197,16.5221086 C67.4406691,16.5320564 67.5887259,16.4697888 67.6881016,16.3540162 C67.7874772,16.2382436 67.8265884,16.0824604 67.7936829,15.933477 L67.6168408,15.3751612 L66.4421039,11.1562139 L64.2138935,11.1562139 L65.4896829,15.7035823 L65.4896829,15.7263191 L57.9006304,15.7263191 L59.9797883,8.80674029 Z" id="路径" fill="#505050"></path>
                <polygon id="矩形" fill="#505050" points="55.4955778 3.7364246 67.6976829 3.7364246 67.6976829 4.51200353 55.4955778 4.51200353"></polygon>
                <polygon id="矩形" fill="#505050" points="54.9296831 8.10947715 68.2610513 8.10947715 68.2610513 8.88505608 54.9296831 8.88505608"></polygon>
                <path d="M72.8311564,4.23158249 L70.5928407,10.0699053 L71.931788,10.0699053 C72.1966276,10.0705994 72.4379339,9.91793619 72.5507354,9.67831922 L74.6021038,4.22905617 L72.8311564,4.23158249 Z" id="路径" fill="#505050"></path>
                <polygon id="矩形" fill="#505050" points="71.1511565 3.7364246 77.0930511 3.7364246 77.0930511 4.51200353 71.1511565 4.51200353"></polygon>
                <polygon id="路径" fill="#505050" points="83.0627352 3.7364246 83.0627352 5.62358246 80.9128405 5.62358246 80.9128405 3.7364246"></polygon>
                <path d="M79.9831563,5.7751614 L79.9831563,13.1621086 C80.0125655,14.3038513 79.8309981,15.4412168 79.4475774,16.5170559 L77.3254721,16.5170559 C77.7144801,15.5213225 77.9016863,14.4581974 77.876209,13.389477 L77.876209,6.19452982 C77.876209,5.69684562 79.9831563,5.63621404 79.9831563,5.7751614 Z" id="路径" fill="#505050"></path>
                <path d="M79.6218932,5.34821404 L78.4370511,5.34821404 C78.1268983,5.34960488 77.876209,5.6014266 77.876209,5.91158245 L77.876209,7.07874033 L79.6218932,7.07874033 L79.6218932,5.34821404 Z" id="路径" fill="#505050"></path>
                <polygon id="矩形" fill="#505050" points="78.8210511 5.34821404 84.7629457 5.34821404 84.7629457 5.98231929 78.8210511 5.98231929"></polygon>
                <path d="M71.5477881,8.90021397 L71.5477881,16.5170559 L76.1178932,16.5170559 C76.4950178,16.5156643 76.7999985,16.2095515 76.7999985,15.8324244 L76.7999985,8.90021397 L71.5477881,8.90021397 Z M74.6147354,15.8804244 L73.7355775,15.8804244 L73.7355775,9.53431922 L74.6147354,9.53431922 L74.6147354,15.8804244 Z" id="形状" fill="#505050"></path>
                <polygon id="路径" fill="#505050" points="32.453052 4.18863512 32.453052 3.7364246 30.2627362 3.7364246 30.2627362 9.46358238 25.1115784 16.5170559 27.3018942 16.5170559 31.356631 10.9591613 35.3987361 16.5170559 37.5890519 16.5170559 32.453052 9.46358238"></polygon>
                <polygon id="路径" fill="#505050" points="27.6656837 10.1128455 27.6656837 4.72168774 25.4753679 4.72168774 25.4753679 10.1128455"></polygon>
                <polygon id="路径" fill="#505050" points="37.237894 10.1128455 37.237894 4.72168774 35.0475783 4.72168774 35.0475783 10.1128455"></polygon>
                <polygon id="路径" fill="#505050" points="43.2985255 9.57979291 41.5250518 9.57979291 40.4538939 11.8256876 42.3941044 11.8256876 52.9389463 11.8256876 52.9389463 11.1941087 52.9389463 11.0501087 42.5962097 11.0501087"></polygon>
                <polygon id="矩形" fill="#505050" points="40.4538939 13.397056 52.9414726 13.397056 52.9414726 14.1726349 40.4538939 14.1726349"></polygon>
                <polygon id="矩形" fill="#505050" points="40.4538939 15.741477 52.9414726 15.741477 52.9414726 16.5170559 40.4538939 16.5170559"></polygon>
                <path d="M50.7511569,5.48716141 L50.7511569,8.1978982 L42.6442097,8.1978982 L42.6442097,4.51200353 L49.7178937,4.51200353 L51.0568411,3.73389829 L40.446315,3.73389829 L40.446315,8.97095081 L52.2467358,8.97095081 C52.4287499,8.97095081 52.6032726,8.89847475 52.7317388,8.76953451 C52.860205,8.64059427 52.932039,8.46580584 52.9314774,8.28379293 L52.9314774,4.22147722 L50.7511569,5.48716141 Z" id="路径" fill="#505050"></path>
                <polygon id="矩形" fill="#505050" points="45.6353675 9.57979291 47.7574727 9.57979291 47.7574727 16.2315822 45.6353675 16.2315822"></polygon>
                <path d="M17.0677891,4.68126669 L17.0526312,4.69389827 L10.4210524,9.86274027 L7.23536828,7.71031926 L1.87957891,11.8863192 C2.11110651,12.8821666 2.54068815,13.8212321 3.14273678,14.6475823 L7.36421038,11.3633718 L10.5498945,13.5132665 L21.867789,4.68126669 L17.0677891,4.68126669 Z" id="路径" fill="#FF7F00"></path>
                <path d="M18.7402102,8.9684245 L17.1157891,10.2315824 C17.0629291,13.8912637 14.446069,17.0101849 10.8512237,17.6980438 C7.25637853,18.3859027 3.67294573,16.4533823 2.27275644,13.0717359 C0.872567155,9.6900896 2.0409909,5.7900368 5.06987459,3.7353043 C8.09875827,1.68057181 12.1544721,2.03667691 14.7789471,4.58779301 L14.7915787,4.60042459 L16.1204207,3.56463513 L16.1381049,3.55200355 L16.122947,3.53431934 C12.9785032,0.323988516 8.00201738,-0.212720715 4.24538062,2.25333516 C0.48874385,4.71939104 -0.997922492,9.49885656 0.697097947,13.6606659 C2.39211839,17.8224753 6.79500357,20.203246 11.2056302,19.3429414 C15.6162568,18.4826367 18.8016887,14.6217442 18.8084207,10.1280034 C18.8077511,9.75225316 18.7849749,9.37686774 18.7402102,9.00379292 L18.7402102,8.9684245 Z" id="路径" fill="#FF7F00"></path>
            </g>
        </g>
    </g>
</svg>